<svg width="82" height="87" viewBox="0 0 82 87" fill="none" xmlns="http://www.w3.org/2000/svg">
<path d="M13.6144 70.2685L5.7106 74.2848L10.514 66.9127L11.7032 68.2009L40.1068 42.7462L40.8288 43.5254L12.4252 68.9802L13.6144 70.2685Z" fill="#1E1E1C"/>
<path d="M66.0794 20.1905C61.5492 15.2892 55.6441 11.8207 49.1113 10.2237C42.5785 8.62671 35.7114 8.97292 29.3786 11.2186C23.0458 13.4643 17.532 17.5085 13.5344 22.8397C9.53689 28.171 7.23531 34.5497 6.92083 41.1689C6.60635 47.7882 8.2931 54.3506 11.7677 60.0262C15.2423 65.7017 20.3487 70.2353 26.4409 73.0535C32.533 75.8717 39.3373 76.848 45.993 75.8587C52.6487 74.8694 58.8568 71.9591 63.832 67.4958C70.4979 61.5139 74.4789 53.1715 74.9003 44.3014C75.3217 35.4314 72.1491 26.7593 66.0794 20.1905V20.1905ZM19.9407 61.5205C16.1571 57.4338 13.6898 52.3341 12.8509 46.8667C12.012 41.3994 12.8392 35.8099 15.2278 30.8055C17.6163 25.8011 21.459 21.6067 26.2697 18.7528C31.0803 15.8989 36.6428 14.5138 42.2534 14.7728C47.8639 15.0317 53.2705 16.923 57.789 20.2075C62.3076 23.4919 65.7352 28.0219 67.6381 33.2244C69.541 38.4268 69.8338 44.0679 68.4794 49.4341C67.1249 54.8002 64.1842 59.6503 60.0292 63.3707C54.4654 68.3603 47.1169 70.9708 39.5985 70.6287C32.0802 70.2866 25.0074 67.0198 19.9345 61.5462L19.9407 61.5205Z" fill="#A90004"/>
<path d="M58.2641 27.2017C55.1429 23.8262 51.0752 21.4376 46.5751 20.3379C42.0751 19.2383 37.345 19.477 32.9829 21.024C28.6208 22.5709 24.8226 25.3565 22.0688 29.0285C19.315 32.7005 17.7291 37.0941 17.5117 41.6535C17.2944 46.2129 18.4553 50.7334 20.8477 54.6434C23.2401 58.5534 26.7565 61.6772 30.9523 63.6198C35.148 65.5624 39.8347 66.2365 44.4195 65.5569C49.0043 64.8774 53.2815 62.8746 56.71 59.8019C61.3073 55.6818 64.0537 49.9326 64.3451 43.8189C64.6366 37.7052 62.4492 31.7279 58.2641 27.2017ZM26.4775 55.6929C23.8763 52.8788 22.1811 49.3687 21.6061 45.6063C21.0311 41.8439 21.6023 37.9982 23.2473 34.5554C24.8923 31.1126 27.5374 28.2273 30.8481 26.2643C34.1587 24.3014 37.9863 23.3489 41.8469 23.5274C45.7074 23.7058 49.4276 25.0071 52.5371 27.2667C55.6465 29.5264 58.0056 32.6429 59.316 36.2223C60.6265 39.8017 60.8294 43.6832 59.8992 47.376C58.969 51.0689 56.9474 54.4072 54.09 56.969C52.1917 58.6718 49.9712 59.9897 47.5553 60.8473C45.1394 61.7049 42.5755 62.0855 40.0101 61.9672C37.4448 61.849 34.9282 61.2342 32.6042 60.1581C30.2802 59.082 28.1944 57.5656 26.4659 55.6956L26.4775 55.6929Z" fill="#A90004"/>
<path d="M55.3691 29.7824C52.7661 26.9699 49.3746 24.9804 45.6232 24.0654C41.8719 23.1503 37.9292 23.3508 34.2937 24.6414C30.6581 25.932 27.493 28.2549 25.1984 31.3163C22.9038 34.3778 21.5828 38.0403 21.4025 41.8408C21.2221 45.6413 22.1905 49.4091 24.1851 52.668C26.1798 55.9268 29.1111 58.5303 32.6086 60.1493C36.1061 61.7683 40.0126 62.33 43.8342 61.7635C47.6559 61.197 51.2211 59.5277 54.079 56.9666C57.9117 53.5302 60.2008 48.7357 60.4427 43.6377C60.6846 38.5397 58.8596 33.5559 55.3691 29.7824ZM28.8617 53.5415C26.6915 51.1941 25.277 48.266 24.7972 45.1274C24.3174 41.9888 24.7937 38.7806 26.166 35.9085C27.5383 33.0365 29.7448 30.6295 32.5067 28.9921C35.2686 27.3546 38.4617 26.5602 41.6822 26.7093C44.9027 26.8584 48.0061 27.9442 50.5998 29.8296C53.1936 31.7149 55.1612 34.3151 56.2539 37.3012C57.3466 40.2874 57.5153 43.5254 56.7386 46.6059C55.962 49.6864 54.2749 52.4709 51.8907 54.6074C50.308 56.0267 48.4566 57.1251 46.4424 57.8397C44.4282 58.5543 42.2907 58.8711 40.152 58.7721C38.0134 58.6731 35.9155 58.1602 33.9782 57.2627C32.041 56.3652 30.3023 55.1007 28.8617 53.5415Z" fill="#A90004"/>
<path d="M38.4789 52.9551C44.2075 54.2809 49.943 50.7839 51.2895 45.1445C52.6359 39.505 49.0835 33.8586 43.3549 32.5329C37.6264 31.2072 31.8909 34.7041 30.5444 40.3436C29.198 45.983 32.7504 51.6294 38.4789 52.9551Z" fill="#A90004"/>
<path d="M74.8601 11.6112L40.0986 42.763L40.8199 43.543L75.5813 12.3912L74.8601 11.6112Z" fill="#1E1E1C"/>
<path d="M80.1743 13.2897L73.2916 19.46L68.5315 17.9846L68.525 17.9885L68.5315 17.9846L67.4815 13.1856L74.3708 7.01129L75.4566 11.7753L71.9902 14.8845L75.4553 11.7804L80.1743 13.2897Z" fill="#1E1E1C"/>
</svg>
