<svg width="212" height="200" viewBox="0 0 212 200" fill="none" xmlns="http://www.w3.org/2000/svg">
<path d="M22.7532 182.315L0.374023 193.866L13.9744 172.664L17.3417 176.369L97.7645 103.162L99.8087 105.403L19.3859 178.61L22.7532 182.315Z" fill="#A90004"/>
<path d="M171.304 38.2935C158.477 24.1978 141.757 14.2227 123.26 9.62974C104.762 5.03683 85.3186 6.03252 67.3878 12.491C49.457 18.9494 33.8448 30.5804 22.526 45.9127C11.2073 61.2449 4.69052 79.5897 3.80009 98.6262C2.90966 117.663 7.68557 136.536 17.5237 152.859C27.3618 169.181 41.8201 182.219 59.0697 190.324C76.3193 198.429 95.5852 201.237 114.43 198.392C133.276 195.547 150.853 187.177 164.94 174.341C183.814 157.137 195.086 133.145 196.279 107.635C197.473 82.1254 188.489 57.185 171.304 38.2935ZM40.6649 157.156C29.9521 145.403 22.9661 130.737 20.5907 115.013C18.2154 99.289 20.5575 83.214 27.3206 68.8217C34.0837 54.4294 44.964 42.3665 58.5851 34.1589C72.2061 25.9512 87.9559 21.9678 103.842 22.7125C119.728 23.4572 135.036 28.8965 147.83 38.3424C160.624 47.7883 170.329 60.8163 175.717 75.7782C181.105 90.7401 181.934 106.964 178.099 122.396C174.264 137.829 165.937 151.778 154.173 162.477C138.419 176.827 117.612 184.335 96.3248 183.351C75.0372 182.367 55.011 172.972 40.6475 157.23L40.6649 157.156Z" fill="#A90004"/>
<path d="M149.174 58.4568C140.337 48.749 128.819 41.8796 116.078 38.7171C103.336 35.5547 89.9433 36.2412 77.5923 40.69C65.2413 45.1389 54.4872 53.1501 46.6898 63.7106C38.8925 74.2712 34.4022 86.9066 33.7868 100.019C33.1714 113.132 36.4585 126.133 43.2324 137.377C50.0063 148.622 59.9629 157.606 71.8428 163.193C83.7228 168.78 96.9927 170.718 109.974 168.764C122.956 166.81 135.066 161.05 144.774 152.213C157.791 140.364 165.567 123.829 166.392 106.247C167.218 88.6643 161.024 71.4738 149.174 58.4568ZM59.1729 140.396C51.8077 132.303 47.0077 122.208 45.3797 111.387C43.7517 100.567 45.3689 89.5068 50.0267 79.6056C54.6845 69.7043 62.1738 61.4064 71.5477 55.7611C80.9216 50.1158 91.7592 47.3765 102.69 47.8897C113.621 48.4028 124.155 52.1452 132.959 58.6439C141.763 65.1425 148.442 74.1055 152.153 84.3996C155.863 94.6937 156.438 105.857 153.804 116.477C151.17 127.097 145.446 136.698 137.356 144.066C131.981 148.963 125.694 152.753 118.853 155.22C112.013 157.686 104.753 158.78 97.4895 158.44C90.2258 158.1 83.1002 156.332 76.52 153.237C69.9398 150.143 64.0339 145.781 59.1399 140.403L59.1729 140.396Z" fill="#A90004"/>
<path d="M140.978 65.8784C133.608 57.7901 124.005 52.0684 113.383 49.4367C102.761 46.805 91.5979 47.3815 81.3041 51.0933C71.0103 54.8051 62.0484 61.4856 55.5515 70.29C49.0545 79.0945 45.3142 89.6277 44.8036 100.558C44.2929 111.488 47.0348 122.324 52.6825 131.696C58.3302 141.068 66.6301 148.556 76.533 153.212C86.4358 157.868 97.4968 159.483 108.318 157.854C119.138 156.225 129.233 151.424 137.325 144.059C148.177 134.176 154.658 120.387 155.343 105.726C156.028 91.0641 150.861 76.7308 140.978 65.8784ZM65.9239 134.208C59.7791 127.457 55.7741 119.036 54.4155 110.01C53.0569 100.983 54.4056 91.7568 58.2912 83.4969C62.1767 75.237 68.4245 68.3148 76.2445 63.6056C84.0645 58.8964 93.1055 56.6118 102.224 57.0405C111.343 57.4692 120.13 60.5921 127.474 66.0142C134.818 71.4364 140.389 78.9143 143.483 87.5023C146.577 96.0903 147.055 105.403 144.856 114.262C142.657 123.121 137.88 131.129 131.129 137.274C126.648 141.356 121.405 144.514 115.702 146.57C109.999 148.625 103.947 149.536 97.8917 149.251C91.8363 148.967 85.8962 147.491 80.411 144.91C74.9258 142.329 70.003 138.693 65.9239 134.208Z" fill="#A90004"/>
<path d="M93.1526 132.522C109.373 136.335 125.612 126.278 129.425 110.059C133.237 93.8405 123.179 77.6018 106.959 73.7891C90.7386 69.9763 74.499 80.0333 70.6866 96.2521C66.8741 112.471 76.9325 128.71 93.1526 132.522Z" fill="#A90004"/>
<path d="M196.166 13.6202L97.7417 103.211L99.7839 105.454L198.209 15.8634L196.166 13.6202Z" fill="#A90004"/>
<path d="M211.214 18.4466L191.726 36.1923L178.248 31.9491L175.276 18.1472L194.782 0.390266L197.856 14.0913L188.041 23.0332L197.853 14.1061L211.214 18.4466Z" fill="#A90004"/>
</svg>
