<svg width="242" height="272" viewBox="0 0 242 272" fill="none" xmlns="http://www.w3.org/2000/svg">
<g clip-path="url(#clip0_234_97)">
<path d="M42.7518 220.315L20.3726 231.866L33.973 210.664L37.3403 214.369L117.763 141.162L119.807 143.403L39.3845 216.61L42.7518 220.315Z" fill="#1E1E1C"/>
<path d="M191.303 76.2935C178.475 62.1978 161.756 52.2227 143.258 47.6297C124.761 43.0368 105.317 44.0325 87.3867 50.491C69.4559 56.9494 53.8437 68.5804 42.5249 83.9127C31.2062 99.2449 24.6894 117.59 23.799 136.626C22.9085 155.663 27.6844 174.536 37.5226 190.859C47.3607 207.181 61.819 220.219 79.0686 228.324C96.3182 236.429 115.584 239.237 134.429 236.392C153.274 233.547 170.852 225.177 184.939 212.341C203.813 195.137 215.085 171.145 216.278 145.635C217.471 120.125 208.488 95.185 191.303 76.2935V76.2935ZM60.6638 195.156C49.9509 183.403 42.9649 168.737 40.5896 153.013C38.2143 137.289 40.5563 121.214 47.3195 106.822C54.0826 92.4294 64.9629 80.3665 78.5839 72.1589C92.205 63.9512 107.955 59.9678 123.841 60.7125C139.727 61.4572 155.035 66.8965 167.829 76.3424C180.623 85.7883 190.328 98.8163 195.716 113.778C201.104 128.74 201.933 144.964 198.098 160.396C194.263 175.829 185.936 189.778 174.172 200.477C158.418 214.827 137.611 222.335 116.324 221.351C95.0361 220.367 75.0099 210.972 60.6464 195.23L60.6638 195.156Z" fill="#A90004"/>
<path d="M169.173 96.4568C160.336 86.749 148.819 79.8796 136.077 76.7171C123.335 73.5547 109.942 74.2412 97.5914 78.69C85.2404 83.1389 74.4863 91.1501 66.689 101.711C58.8917 112.271 54.4014 124.907 53.786 138.019C53.1705 151.132 56.4576 164.133 63.2316 175.377C70.0055 186.622 79.962 195.606 91.842 201.193C103.722 206.78 116.992 208.719 129.974 206.764C142.955 204.81 155.066 199.05 164.773 190.213C177.79 178.364 185.566 161.829 186.392 144.247C187.217 126.664 181.023 109.474 169.173 96.4568ZM79.172 178.396C71.8069 170.303 67.0068 160.208 65.3789 149.387C63.7509 138.567 65.368 127.507 70.0258 117.606C74.6836 107.704 82.173 99.4064 91.5469 93.7611C100.921 88.1158 111.758 85.3765 122.689 85.8897C133.62 86.4028 144.154 90.1452 152.958 96.6439C161.762 103.143 168.442 112.106 172.152 122.4C175.862 132.694 176.437 143.857 173.803 154.477C171.169 165.097 165.445 174.698 157.355 182.066C151.98 186.963 145.693 190.753 138.852 193.22C132.012 195.686 124.752 196.78 117.489 196.44C110.225 196.1 103.099 194.332 96.5192 191.237C89.939 188.143 84.0331 183.782 79.139 178.404L79.172 178.396Z" fill="#A90004"/>
<path d="M162.536 102.458C154.885 94.0616 144.916 88.1218 133.89 85.3898C122.863 82.6578 111.274 83.2563 100.588 87.1096C89.9018 90.9628 80.5984 97.8979 73.8538 107.038C67.1092 116.178 63.2264 127.113 62.6962 138.459C62.1661 149.806 65.0125 161.055 70.8754 170.784C76.7384 180.514 85.3547 188.287 95.635 193.12C105.915 197.954 117.398 199.631 128.631 197.94C139.864 196.248 150.344 191.264 158.744 183.618C170.01 173.359 176.738 159.044 177.449 143.824C178.16 128.604 172.796 113.724 162.536 102.458ZM84.6215 173.392C78.2425 166.384 74.0849 157.642 72.6745 148.272C71.2642 138.901 72.6643 129.323 76.6979 120.748C80.7315 112.174 87.2174 104.987 95.3355 100.099C103.454 95.2101 112.839 92.8383 122.306 93.2834C131.772 93.7284 140.894 96.9703 148.518 102.599C156.141 108.228 161.925 115.991 165.137 124.906C168.349 133.822 168.844 143.489 166.562 152.686C164.279 161.883 159.32 170.196 152.312 176.575C147.66 180.812 142.218 184.091 136.297 186.225C130.377 188.358 124.094 189.304 117.808 189.009C111.522 188.713 105.355 187.182 99.6608 184.502C93.9666 181.823 88.8561 178.048 84.6215 173.392Z" fill="#A90004"/>
<path d="M113.152 170.522C129.372 174.335 145.612 164.278 149.424 148.059C153.236 131.841 143.178 115.602 126.958 111.789C110.738 107.976 94.4983 118.033 90.6858 134.252C86.8734 150.471 96.9318 166.71 113.152 170.522Z" fill="#A90004"/>
<path d="M216.165 51.6202L117.74 141.211L119.782 143.454L218.207 53.8634L216.165 51.6202Z" fill="#1E1E1C"/>
<path d="M231.213 56.4466L211.725 74.1923L198.247 69.9491L198.229 69.9604L198.247 69.9491L195.274 56.1472L214.78 38.3903L217.855 52.0914L208.04 61.0332L217.851 52.1061L231.213 56.4466Z" fill="#1E1E1C"/>
</g>
<defs>
<clipPath id="clip0_234_97">
<rect width="192.712" height="232.828" fill="white" transform="translate(54.0996 0.619995) rotate(13.228)"/>
</clipPath>
</defs>
</svg>
