<svg width="330" height="183" viewBox="0 0 330 183" fill="none" xmlns="http://www.w3.org/2000/svg">
<path d="M0 137H159.316C163.998 137.008 168.636 136.086 172.964 134.286C177.292 132.487 181.226 129.845 184.54 126.511C187.854 123.178 190.484 119.219 192.279 114.86C194.074 110.502 194.998 105.83 195 101.111V20C195 8.95429 186.046 0 175 0H54.3237C44.1002 0 34.2954 4.09329 27.0662 11.3794C19.8371 18.6655 15.7758 28.5476 15.7758 38.8517V109.453L0 137Z" fill="#265CE3"/>
<path d="M330 183H233.593C230.76 183.005 227.954 182.466 225.335 181.415C222.715 180.364 220.335 178.822 218.33 176.875C216.324 174.929 214.733 172.617 213.647 170.072C212.561 167.527 212.001 164.798 212 162.043V123C212 111.954 220.954 103 232 103H297.127C303.314 103 309.247 105.39 313.621 109.645C317.996 113.9 320.454 119.67 320.454 125.687V166.914L330 183Z" fill="#265CE3"/>
</svg>
