<svg width="78" height="70" viewBox="0 0 78 70" fill="none" xmlns="http://www.w3.org/2000/svg">
<g clip-path="url(#clip0_218_251)">
<path d="M68.9824 43.2844C72.656 40.2059 75.3463 36.1169 76.7199 31.5239C78.0935 26.9309 78.0902 22.0357 76.7103 17.4445C75.3304 12.8534 72.6346 8.7681 68.9568 5.69461C65.2789 2.62112 60.7806 0.694484 56.0191 0.153339C51.2576 -0.387807 46.4419 0.480317 42.1687 2.65017C37.8955 4.82003 34.3524 8.1963 31.9783 12.3608C29.6041 16.5253 28.5033 21.295 28.8121 26.0792C29.1209 30.8634 30.8258 35.4519 33.7155 39.2764L29.2503 43.0144C28.8086 42.7283 28.3084 42.5451 27.7865 42.4783C27.2646 42.4115 26.7343 42.4629 26.2349 42.6286C25.2792 42.9414 24.3919 43.4337 23.6206 44.0791L1.31366 62.7692C-0.344413 64.1579 -0.456236 66.7348 1.09773 68.4437C1.78242 69.2049 2.73332 69.6739 3.75384 69.7536C4.77436 69.8332 5.78647 69.5176 6.58094 68.8719L28.7953 50.2628C29.5653 49.6194 30.2042 48.8335 30.677 47.9482C30.927 47.4854 31.07 46.9724 31.0953 46.447C31.1207 45.9215 31.0278 45.3971 30.8235 44.9123L35.2888 41.1704C39.5614 45.7801 45.4418 48.5704 51.7133 48.9638C57.9848 49.3573 64.1676 47.3239 68.9824 43.2844ZM40.1435 8.836C43.2418 6.23728 47.041 4.61639 51.0605 4.17839C55.0799 3.7404 59.1388 4.50498 62.7238 6.37541C66.3087 8.24584 69.2585 11.1381 71.2 14.6861C73.1414 18.2342 73.9873 22.2786 73.6304 26.3077C73.2736 30.3368 71.7302 34.1695 69.1955 37.3209C66.6608 40.4722 63.2487 42.8005 59.3909 44.0113C55.5331 45.2221 51.403 45.2609 47.5231 44.1228C43.6433 42.9846 40.1881 40.7208 37.5947 37.6176C34.1211 33.4613 32.4385 28.0957 32.9164 22.6992C33.3943 17.3027 35.9936 12.3166 40.1435 8.836Z" fill="#A90004"/>
<path d="M53.258 32.4116C56.1032 32.4116 58.4096 30.1042 58.4096 27.2578C58.4096 24.4115 56.1032 22.1041 53.258 22.1041C50.4129 22.1041 48.1064 24.4115 48.1064 27.2578C48.1064 30.1042 50.4129 32.4116 53.258 32.4116Z" fill="#1E1E1C"/>
<path d="M41.9111 27.1537C42.3854 26.6175 47.1013 21.456 54.3621 22.1735C60.5664 22.783 64.0329 27.2308 64.6036 27.9869" stroke="#1E1E1C" stroke-miterlimit="10"/>
<path d="M44.0355 19.1587C44.5954 18.4752 47.4614 15.1101 52.3422 14.6609C58.7473 14.0705 62.816 19.0369 63.1217 19.4432" stroke="#1E1E1C" stroke-miterlimit="10"/>
</g>
<defs>
<clipPath id="clip0_218_251">
<rect width="77.7521" height="69.7686" fill="white"/>
</clipPath>
</defs>
</svg>
