<svg width="222" height="199" viewBox="0 0 222 199" fill="none" xmlns="http://www.w3.org/2000/svg">
<g clip-path="url(#clip0_111_520)">
<path d="M196.599 123.085C207.043 114.333 214.691 102.709 218.596 89.6512C222.501 76.5939 222.492 62.6773 218.569 49.6253C214.646 36.5733 206.982 24.9593 196.526 16.2217C186.071 7.48415 173.283 2.00697 159.746 0.468561C146.21 -1.06985 132.52 1.39812 120.371 7.56676C108.223 13.7354 98.1505 23.3337 91.4011 35.1728C84.6518 47.0119 81.5222 60.5717 82.4001 74.1726C83.278 87.7735 88.1247 100.818 96.34 111.691L83.6459 122.317C82.3903 121.504 80.9682 120.983 79.4844 120.793C78.0007 120.603 76.4933 120.749 75.0735 121.221C72.3566 122.11 69.8341 123.509 67.6412 125.344L4.22548 178.478C-0.48822 182.426 -0.806118 189.751 3.61161 194.61C5.55812 196.774 8.2614 198.107 11.1626 198.333C14.0638 198.56 16.9411 197.663 19.1997 195.827L82.3524 142.924C84.5415 141.094 86.3578 138.86 87.7019 136.344C88.4126 135.028 88.819 133.569 88.8911 132.076C88.9632 130.582 88.6991 129.091 88.1184 127.713L100.813 117.075C112.959 130.18 129.676 138.112 147.505 139.231C165.335 140.349 182.911 134.569 196.599 123.085ZM114.614 25.1523C123.422 17.7645 134.223 13.1565 145.649 11.9113C157.076 10.6661 168.615 12.8397 178.807 18.1571C188.998 23.4745 197.384 31.6968 202.904 41.7835C208.423 51.8702 210.828 63.368 209.813 74.8223C208.799 86.2765 204.411 97.1724 197.205 106.131C189.999 115.09 180.299 121.709 169.332 125.151C158.365 128.593 146.623 128.704 135.593 125.468C124.563 122.233 114.741 115.797 107.368 106.975C97.4931 95.1589 92.7097 79.9052 94.0683 64.5637C95.4269 49.2222 102.816 35.0473 114.614 25.1523V25.1523Z" fill="#A90004"/>
<path d="M151.899 92.1731C159.988 92.1731 166.545 85.6134 166.545 77.5216C166.545 69.4297 159.988 62.87 151.899 62.87C143.811 62.87 137.254 69.4297 137.254 77.5216C137.254 85.6134 143.811 92.1731 151.899 92.1731Z" fill="#A90004"/>
<path d="M119.638 77.2255C120.986 75.7011 134.393 61.0277 155.034 63.0675C172.672 64.8002 182.527 77.4448 184.15 79.5943" stroke="#A90004" stroke-width="2.87455" stroke-miterlimit="10"/>
<path d="M125.68 54.4964C127.271 52.5532 135.419 42.9868 149.295 41.7097C167.504 40.0314 179.07 54.1503 179.939 55.3052" stroke="#A90004" stroke-width="2.87455" stroke-miterlimit="10"/>
</g>
<defs>
<clipPath id="clip0_111_520">
<rect width="221.04" height="198.344" fill="white" transform="translate(0.490234 0.030899)"/>
</clipPath>
</defs>
</svg>
