<svg id="Layer_1" data-name="Layer 1" xmlns="http://www.w3.org/2000/svg" viewBox="0 0 787.25 734.5"><defs><style>.cls-1{fill:#1b51da;}.cls-2{fill:#f8e8e7;}.cls-3{fill:#0c0016;}.cls-4{fill:#010101;}.cls-5{fill:#4d4d4d;}.cls-6{fill:#081942;}.cls-7{fill:#505050;}.cls-8{fill:#121b25;}.cls-9{fill:#474747;}.cls-10{fill:#3684d0;}.cls-11{fill:#fefefe;}.cls-12{fill:#010304;}.cls-13{fill:#010102;}.cls-14{fill:#050505;}.cls-15{fill:#232121;}.cls-16{fill:#172029;}.cls-17{fill:#0b0a0a;}.cls-18{fill:#28313c;}.cls-19{fill:#191f26;}.cls-20{fill:#1a2129;}.cls-21{fill:#3684cf;}.cls-22{fill:#030507;}.cls-23{fill:#020305;}.cls-24{fill:#04090e;}.cls-25{fill:#020406;}.cls-26{fill:#03060a;}.cls-27{fill:#05090d;}.cls-28{fill:#03070b;}.cls-29{fill:#4e85b9;}.cls-30{fill:#0b0b0b;}</style></defs><path class="cls-1" d="M165.5,234c3,6.69,5.25,13.65,7.68,20.56,3.4,9.67,7.39,19.13,10.39,28.95a1.79,1.79,0,0,1-.82.54c-3.93,1.2-3.93,1.2-3.94,5.4,0,14,1.13,27.93,1.05,41.91,0,1.74.42,3.46.53,5.21.1,1.45.92,2,2.36,1.89,6.82-.5,13.64-.15,20.47-.21,2.5,0,5-.66,7.46-.51,1.14.07,2.37-.18,3.23.9,4.48,6.9,9.42,13.47,14.48,19.94A365.72,365.72,0,0,0,270.33,404,350.17,350.17,0,0,0,302,429l2,1.47c.72.92.11,1.76-.21,2.57a177,177,0,0,0-11.44,46.18c-.53,4.7-.55,9.46-.74,14.2A161.29,161.29,0,0,0,297,540.86,173.42,173.42,0,0,0,444.22,669.7a159.88,159.88,0,0,0,27.92,1.06,173.81,173.81,0,0,0,143.68-88.4,176.57,176.57,0,0,0,10.48-22.11c.47-1.18.66-2.65,2.25-3a171.65,171.65,0,0,0,22.68-.08c1.75-.16,2-.83,2-2.27,0-9.41,0-18.82,0-28.23q-.08-59.24-.14-118.46c0-1-.25-2.36.79-2.68,1.25-.38,2.22.81,3.06,1.63q8.7,8.44,17.33,17Q736,485,797.69,545.9q39.85,39.32,79.71,78.62,13.51,13.34,27,26.76c3,3,3.06,3.15.12,6.15q-28.92,29.4-57.87,58.77L689.89,875.45q-14.64,14.88-29.33,29.69c-.47.48-1,.92-1.44,1.38s-1.12,1.31-2.12.94-1.09-1.37-1.11-2.28c-.13-5.92-.35-11.83-.36-17.74q-.06-66.48-.07-133c0-3.15-.13-3.21-3.4-3.36-11.18-.49-22.28-1.79-33.38-3.22-8.37-1.09-16.75-2.06-25.08-3.43-11.62-1.9-23.13-4.35-34.64-6.78-4.06-.85-8.13-1.61-12.17-2.52-1.61-.37-2,.11-2,1.69.09,5.24.45,10.48.1,15.72-1.54-.21-1.06-1.48-1.08-2.33-.1-3.91,0-7.82,0-11.74,0-6,0-12,0-18,0-3.46-.32-3.73-3.65-3.79-18.66-.32-37.3.68-56,.56-.66,0-1.33.06-2,0-2.6-.18-3.12-.74-3.38-3.32a91.37,91.37,0,0,1-.53-10.46c0-.86.35-2-.7-2.44-.86-.31-1.42.68-2,1.23-3.19,3-6.08,6.4-9.58,9.12a4.33,4.33,0,0,1-2.11,1.26c-1.28-1.12-2.93-1.49-4.45-2.05-19.49-7.17-38.88-14.63-57.77-23.27-14.52-6.65-28.66-14.11-42.7-21.72-21-11.38-41.52-23.49-60.51-38.07-22.82-17.51-45-35.7-65-56.46a433.66,433.66,0,0,1-30.78-35.41c-17.21-22.28-31.4-46.41-43.52-71.76a284.66,284.66,0,0,1-19.57-54.44c-3.28-13.23-6.13-26.53-7.47-40.11a310.17,310.17,0,0,1-1.73-32.12c0-9.31-.09-18.64.54-27.91.78-11.63,3.49-23,6.05-34.33,4.86-21.64,12.3-42.34,21.23-62.57.16-.38.35-.74.79-1.67,2.08,6.91,4,13.34,6,19.77.46.49.26,1.05.17,1.6A467.49,467.49,0,0,0,155,285.3c-1.48,11.87-2.43,23.79-3,35.75-.48,9.66-.46,19.31-.12,28.94a313.26,313.26,0,0,0,3,33.75,272.57,272.57,0,0,0,5.57,28.38c4.78,18.74,11.76,36.56,22.49,52.78a147.88,147.88,0,0,1-8.22-14.17c-2.46-4.92-4.73-9.91-6.73-15s-3.79-10.48-5.38-15.83a260.77,260.77,0,0,1-9.37-49.67c-.83-8.59-1.17-17.24-1.44-25.89A365.63,365.63,0,0,1,153.11,303a412.92,412.92,0,0,1,8.59-56.15c.78-3.49,1.43-7,2.39-10.45C164.34,235.49,164.19,234.28,165.5,234Z" transform="translate(-130.3 -173.06)"/><path d="M628.55,557.21c-2.24,3.54-3.29,7.59-5,11.36-14.41,31.51-36,56.84-65.22,75.5-25.13,16.06-52.6,25.37-82.42,27-55.19,3-101.86-16-139.49-56.25-24.56-26.3-39-57.81-43.94-93.48a172.72,172.72,0,0,1,11.1-89.43c.18-.46.3-.94.45-1.41,4.08-8.85,8.27-17.63,13.56-25.84q37-57.42,102.89-75.43a7.38,7.38,0,0,1,1.21-.3c2.14-.24,2.69-1,1.72-3.2A41.55,41.55,0,0,1,420.23,303c2.19-14.88,10-25.64,24.69-30.7,8.36-2.89,16.66-2.4,25-.07,7.5,2.09,15.13,3.16,22.93,2.2,6.45-.8,12.63-2.86,19-4.18,4.79-1,9.58-2.24,14.57-1.37a14.32,14.32,0,0,1,4.26,1.35c3.2,1.69,4.12,4.19,2.6,7.49-1.11,2.42-2.51,4.7-3.65,7.11-1.74,3.7-1.06,5.42,2.7,7.06a12.77,12.77,0,0,1,4.6,2.91,3.89,3.89,0,0,1,0,5.78,7.8,7.8,0,0,1-2.63,1.85,77.78,77.78,0,0,1-7.29,3.28,12.91,12.91,0,0,0-8.54,8.72c-1.67.8-2-.67-2.44-1.59-.75-1.57-1.23-3.27-2.08-4.81a8.48,8.48,0,0,0-7.84-4.81,73.11,73.11,0,0,0-14.6,1.61,104.22,104.22,0,0,1-28.33,1,47.88,47.88,0,0,0-6-.05c-3.63.18-6.12,2.22-7.28,5.79-1.62,4.95-1.37,10-.93,15.09.52,5.88,1.2,11.73.77,17.66-.23,3.12-.95,3.7-3.92,2.69a23.43,23.43,0,0,0-8.09-1.28,6.59,6.59,0,0,0-4.44,1.31c-.74.64-1.76.78-2.15-.09-1.18-2.61-3-1.69-4.76-1.07a156.12,156.12,0,0,0-95.64,74.36,157.32,157.32,0,0,0-19.05,56.49,143.2,143.2,0,0,0-1.42,27.89,164.53,164.53,0,0,0,10.42,49.91,156.21,156.21,0,0,0,29.54,48.33,151,151,0,0,0,30.84,26.43,4.31,4.31,0,0,0,1.85.86c-.42-4.25-.9-8.41-1.31-12.58-.32-3.31-.93-6.6-.73-10,.07-1.13,0-2.47,1.71-2.49,2.19.81,3.56,2.69,5.27,4.11,11.44,9.56,24.75,14.69,39.28,17.21,5.57,1,11.09,2.12,16.74,2.65,3,.28,5.81-.36,8.7-.25a99.28,99.28,0,0,0,32.48-4.57c13.94-4.19,27.81-8.75,40-17.16a115.5,115.5,0,0,0,12.71-10.45c2-.88,2.34.75,2.56,2a87,87,0,0,1,.83,9.68c.43,7.56.68,15.12.55,22.7,0,2.46.31,2.62,2.57,1.36a142.86,142.86,0,0,0,23.46-16.91,153.81,153.81,0,0,0,32.08-39,155.57,155.57,0,0,0,20.56-61.35,156.87,156.87,0,0,0-25.13-105.62c-1-1.44-2.5-2.5-2.84-4.35-.3-4.51.85-8.89,1.14-13.35a25.2,25.2,0,0,1,1.11-7.36c.33-.88.41-2,1.82-1.92a188.43,188.43,0,0,1,21.92,32.12,173.91,173.91,0,0,1,20.35,87.08A176.48,176.48,0,0,1,630,552.06C629.43,553.75,628.15,555.26,628.55,557.21Z" transform="translate(-130.3 -173.06)"/><path class="cls-2" d="M425.88,345.45l2.82-.94c1.4-.47,2.59-.71,2.54,1.48,0,.39.36,2,1.33.84,2.32-2.71,5.3-1.94,8.12-1.76a15.55,15.55,0,0,1,6,1.55c1.69.83,2.82.59,2.39-1.67s.2-4.27.17-6.41c-.06-5.58-1.21-11.06-1.27-16.65a40.91,40.91,0,0,1,1-10.13,8.16,8.16,0,0,1,8.21-6.68c7.48-.07,14.94.66,22.44.38,6.94-.25,13.64-2,20.49-2.72a27.72,27.72,0,0,1,8.43-.05,7.58,7.58,0,0,1,5.5,3.94,40.6,40.6,0,0,1,2.69,6.16c.25.8.33,1.94,1.7,1.64-.23.65-.15,1.12.67,1.18-.16.9-1,1.12-1.62,1.34-4.44,1.5-7,4.93-8.88,8.88a4.58,4.58,0,0,1-4.07,3c-2.66.33-5.43.06-8,1.47-1.57.87-3.41-.11-5.14-.16-2.54-.07-5.14-.17-7.51-1.35-2.33-4.41-6.17-3.1-9.8-2.58a7.43,7.43,0,0,0-5.16,3.16c-5.52,6.8-6.64,14.49-4.08,22.71,1.45,4.67,5.58,6.68,10.74,5.61a11.93,11.93,0,0,0,3.51-1.23,4,4,0,0,1,2.93-.05c4,1.23,8,2.32,11.64,4.38,1.91,1.06,2.7,2.18,2.18,4.35a68.46,68.46,0,0,0-1.61,20.57c.3,4.48.47,8.95.43,13,.52-5.57-.49-11.51-.47-17.48a94.39,94.39,0,0,1,4.38-27c1.05-3.48,1.59-7.19,3.66-10.3s3.78-6.54,7.67-7.84c1.66.09,1.63,1.35,1.7,2.5a7.84,7.84,0,0,1-.53,2.9c-.72,2.2-2,4.21-2.39,6.55a10.6,10.6,0,0,0,2-4,13,13,0,0,1,3.45-5.42,6.4,6.4,0,0,1,6.06-2.15c1.73.65,1.19,1.94.79,3.1-.63,1.88-1.73,3.56-2.53,5.37a10.46,10.46,0,0,0-.85,2.84,15.67,15.67,0,0,0-.45,2.32,50.92,50.92,0,0,1,4.27-7.42,12.15,12.15,0,0,1,4.12-3.85,2.48,2.48,0,0,1,2.6,0c1,1.06.22,2-.18,3a53,53,0,0,0-3.66,11.38c-.09.49-.28,1,.13,1.39,1.32-.85,1.52-2.34,1.87-3.6a10,10,0,0,1,5.61-6.83c2-.14,2.66.38,2.43,2.45-.44,3.86-1.13,7.69-1.41,11.56-.27,3.68-1,7.36-.25,11.07.21.89,2.51.32,1.48,2.09-1.61.58-2,1.74-1.74,3.35,1.29,7.7-.17,15.36-.47,23-.14,3.71-.68,7.41-.85,11.13-.84.82-1.72.28-2.54,0-3.94-1.36-8-1.3-12.06-.95-4.78.41-9.56.76-14.29-.78a9.12,9.12,0,0,0-9.53,2c-3.88,3.69-6.86,7.92-6.51,13.68.28,3.1-1.08,5.84-2,8.68-1.6,5.15-2.77,10.42-4.51,15.53-.59,1.72-1.38,3.21-3.31,3.72a21.58,21.58,0,0,1-6.75-3,59.9,59.9,0,0,1-10.11-8.07c-8.1-7.92-15.87-16.11-22.51-25.32-.7-1-1.34-1.68-2.62-.81a.67.67,0,0,1-1.12-.47c4.14-5.72,3-12.55,3.89-18.94a108.66,108.66,0,0,0,.64-15.94,14.09,14.09,0,0,0-4.89-11,15,15,0,0,1-5.32-11.4,11.23,11.23,0,0,1,1.28-5.77,7,7,0,0,0,.89-4.93C428.6,345.92,427.34,346.58,425.88,345.45Z" transform="translate(-130.3 -173.06)"/><path class="cls-3" d="M213.91,338.64c-10.31.21-20.63.4-30.94.68-3,.08-3.42-.1-3.53-3q-.54-14.85-1-29.7c-.19-6.24-.39-12.48-.51-18.72-.07-4.15,0-4.15,4.15-4.25.49,0,1-.08,1.49-.12,6.57-.15,13.14-.28,19.71-.46,19.14-.53,38.29-1.12,57.43-1.58,1.84-.05,2.4-.45,2.34-2.37-.21-6-.21-12-.27-18,0-1-.23-2.2.9-2.65s1.61.63,2.28,1.21q26.22,22.92,52.44,45.85c2.26,2,2.25,2.43.1,4.54q-25.06,24.57-50.17,49.12c-.6.6-1.08,1.7-2.22,1.17s-.85-1.6-.87-2.44c-.12-5.92-.24-11.83-.16-17.74,0-2.11-.4-2.85-2.72-2.78C246.22,337.9,230.07,338.24,213.91,338.64Z" transform="translate(-130.3 -173.06)"/><path class="cls-3" d="M463.82,712.69l12.85-12.55c.44-.44.94-.78,1.56-.51s.69,1.06.71,1.73c.15,4.33.37,8.65.4,13,0,1.66.38,2.39,2.2,2.35,8.75-.2,17.49-.31,26.23-.43,11.49-.14,23-.24,34.47-.41,2,0,2.12,1.15,2.13,2.59.06,7.91.08,15.83.21,23.74.06,3.47-.25,7,.29,10.41a3.86,3.86,0,0,1,.06.49c.25,4.9.16,5.07-4.68,5.18-19.13.45-38.27.9-57.4,1.22-2.32,0-3,.63-2.85,2.94.31,4,.36,8,.48,12,0,.86.38,2-.73,2.42-.95.38-1.51-.53-2.1-1q-17.58-15.71-35.14-31.44c-1.43-1.27-2.84-2.56-4.31-3.79s-1.41-2.15,0-3.45c5.89-5.52,11.67-11.15,17.55-16.68C458.43,717.85,460.84,715,463.82,712.69Z" transform="translate(-130.3 -173.06)"/><path class="cls-4" d="M534.58,371c-.81-.55-2-.24-2.64-1.19.5-1.52,1.75-1,2.73-.91a80.71,80.71,0,0,1,8.63,1.78,30.73,30.73,0,0,1,6.29-37.91c-4.76-.38-9.21-1.46-13.76-1.49-4.9,0-9.8-.12-14.69-.55a3,3,0,0,1-2.29-.76,11.47,11.47,0,0,1-.35-3,10.89,10.89,0,0,1,9.57-7.48c5.47.47,10.93,1,16.42.54,3.46-3.5,7.88-2.34,11.85-2a234.69,234.69,0,0,0,26.65.45c3.41-.07,6.81,0,10.21.18a14.5,14.5,0,0,0,4.94-.34c5.91-1.74,11.25.17,14.82,5.33,4,5.83,4.52,12.34,3.5,19.12A36,36,0,0,1,610,358a19.18,19.18,0,0,1-13.64,8.21,10.23,10.23,0,0,1-7-1.45c-4.65-3-9.81-1.84-14.83-1.82-1.14,0-1.65,1-2.12,1.91a24.62,24.62,0,0,1-10.9,10.63,2.89,2.89,0,0,0-1.71,3.23c.88,8.88.21,17.79.41,26.69,0,.33,0-.09,0,.24-.1,1.23,0,3-1.51,3-1.76,0-1.36-1.76-1.37-2.9-.05-8.32,0-16.64,0-25,0-3.72,0-3.7-3.59-4.09A17.75,17.75,0,0,1,548.5,375c-3.07-2.12-6.83-1.83-10.2-2.89C537.06,371.74,535.62,372,534.58,371Z" transform="translate(-130.3 -173.06)"/><path class="cls-2" d="M548.52,374.44c2.49,1,5,1.87,7.72,1.68,1.11-.08,1.45.38,1.52,1.42.41,6.31.24,12.63.22,18.95,0,3.41-.1,6.82-.1,10.24,0,.69-.16,1.76.85,1.74.72,0,.74-1,.74-1.66,0-5.33-.06-10.66-.05-16a128,128,0,0,0-.37-13.71c-.12-1.14.44-1.63,1.4-2a21.85,21.85,0,0,0,11.46-11,3.18,3.18,0,0,1,3.45-2.06c2.74.11,5.49,0,8.24,0a9.21,9.21,0,0,1,5.55,1.68c5.11,3.6,12.76,2.11,18.17-3.21.89-.87,1.76-1.75,2.64-2.62-2.2,4.35-6.05,6.69-10.5,7.88-1.77.47-1.9,1.14-2,2.62-.26,3.35-.7,6.69-1.23,10a7.18,7.18,0,0,0,.25,4.11c-1.55.58-1.18,2.13-1.33,3.19-.9,6.07-1.59,12.17-2.33,18.26a7.58,7.58,0,0,0,.15,1.48c-.88,2.71-.36,5.42,0,8.13a1.35,1.35,0,0,1-.79.09c-2.36-1.87-5.09-2.17-8-2a70.6,70.6,0,0,1-14.88-.91,40.07,40.07,0,0,0-8.69,0c-5.89.32-9.9,5.83-10.85,10.2a39.77,39.77,0,0,0-.55,16.75c0,1.49.12,3,0,4.45-.06.89,0,1.84-1,2.39-1.23-.63-1-1.83-1-2.84.06-3.17-.69-6.3-.73-9.41-.08-7.69.1-15.66,6.94-20.87a7.33,7.33,0,0,0,3.21-7.24c-.57-7,.13-14.07,0-21.1a16.51,16.51,0,0,0-.16-2c-.45-3.23-.48-3.11-3.67-4C551.3,376.65,548.92,377.07,548.52,374.44Z" transform="translate(-130.3 -173.06)"/><path class="cls-5" d="M917.55,640.83c-.23.33-.34.66-.49.68a1.3,1.3,0,0,1-.91-.18c-.8-.74-1.5-1.56-2.27-2.32L775.09,503.14l-109.31-107c-.89-.88-1.87-1.66-2.77-2.52-.4-.39-1-.86-.48-1.46s1.07,0,1.46.35c.83.82,1.59,1.71,2.42,2.53L914.87,638.25C915.75,639.11,916.64,640,917.55,640.83Z" transform="translate(-130.3 -173.06)"/><path class="cls-6" d="M165.5,234c-2.28,6.88-3.5,14-4.89,21.1a436.57,436.57,0,0,0-7.76,61.06c-.66,12.58-.78,25.13-.2,37.68,1.29,27.48,5.52,54.44,15.34,80.29,4.21,11.08,9.29,21.74,16.2,31.44.35.49,1,1,.49,1.88-1.23-.19-1.64-1.23-2.21-2.08-9-13.4-15.31-28-20-43.41-6-19.75-9.2-40-10.64-60.55a352.46,352.46,0,0,1-.72-35.45A427.65,427.65,0,0,1,164.31,233c.13-.48.29-1,.44-1.43,1,.09.24,1.06.71,1.42Z" transform="translate(-130.3 -173.06)"/><path class="cls-7" d="M388.89,323.18a1.56,1.56,0,0,1-1.3,1c-10,2.9-18.9,7.85-27.37,13.68-22,15.17-41,33.41-56.15,55.56-1.4,2.06-2.56,4.29-3.83,6.44-.36.6-.58,1.79-1.45,1.3-1.08-.62,0-1.45.35-2.09a167.43,167.43,0,0,1,23.5-30.67c14.76-15.43,30.89-29.13,49.8-39.31a71,71,0,0,1,13.29-5.71C386.73,323.09,387.73,322.6,388.89,323.18Z" transform="translate(-130.3 -173.06)"/><path class="cls-8" d="M519,327a3.92,3.92,0,0,1-.08,2.7,4.89,4.89,0,0,1-3.13.58c-3.48,0-7,.06-10.46,0a20.09,20.09,0,0,0-8.07,1.08,62.6,62.6,0,0,1-10.84-1.14c-1-.18-2.49-.06-2.33-1.84a32.17,32.17,0,0,0,11.78,1.33c2.29-.15,4.84-1.39,7.35-1.46,2.8-.08,4.16-1.16,5.39-3.82a15.41,15.41,0,0,1,10.54-8.81,25.66,25.66,0,0,1,5.67.34,4.06,4.06,0,0,1,3.12,1.81c.93,1.67,2.23,1.79,3.92,1.79,4.21,0,8.43.27,12.65.42-3,1.2-6.19.63-9.23.42-2.62-.19-5.26-.15-7.88-.45a9.74,9.74,0,0,0-13.82,1,17.81,17.81,0,0,0-3.42,4.56c-.53,1.22-.4,2,1.12,1.87C513.83,327.2,516.48,328.57,519,327Z" transform="translate(-130.3 -173.06)"/><path class="cls-9" d="M165.46,233c-.24-.47-.48-.95-.71-1.42,0-.35.09-.7.13-1A452.73,452.73,0,0,1,182,178.18c.55-1.4,1.1-2.79,1.67-4.18.18-.44.34-1.12,1-.9.83.29.37.94.17,1.45-1.22,3.1-2.47,6.18-3.67,9.29a430.25,430.25,0,0,0-15,47C165.91,231.6,165.67,232.31,165.46,233Z" transform="translate(-130.3 -173.06)"/><path class="cls-10" d="M548.06,444.61c1-2.24.4-4.58.51-6.88,5.8,2,11.84,2.18,17.87,2,6.48-.2,12.93-1.18,19.43-1.07a2.32,2.32,0,0,0,1.62-.54c-2.69-.26-5.34-1.07-8-.64a123.71,123.71,0,0,1-21.15,1.29,37.4,37.4,0,0,1-5-.52,4,4,0,0,1-3.79-3.75c-.46-7.2.18-14.16,5.8-19.61a7.83,7.83,0,0,1,4.65-2.15,47.15,47.15,0,0,1,13.68,0c6.28,1,12.65.13,18.93,1a.63.63,0,0,1,.35-.11,36.71,36.71,0,0,0,2.47,3.36c1.68,2,2.58,4.35,1.71,7.06-1.25.26-1.25-.87-1.58-1.51a28.25,28.25,0,0,0-3.64-5.24c3.41,7.73,4.84,12.44,1,18.76.61.86,2.24-1.23,2.43.81-1.68,4.94-1.12,10-.88,15.06.27,5.55.61,11.09.84,16.64.23,5.88,1,11.73,1.28,17.61.17,3.55.66,7.1-.26,10.62-1.34-.23-1.42-.24-1.48-1.93-.1-2.91-.14-5.81-.46-8.72-1.47-13.64-2.55-27.32-2.09-41.07-1,9.69-.32,19.35.26,29,.49,8.22,1.72,16.37,1.8,24.64,0,4.72.57,9.47.37,14.21-.46,11.07-1.1,22.16-4.88,32.71-4.14,11.52-10.1,21.91-19.95,29.63-1,.77-1.91,1.61-2.84,2.44-5.88,5.28-12.4,6.35-19.65,3.1-1.76-.79-3.56-2.07-5.64-.75-1.24.38-1.83-.55-2.55-1.23-.59-1.26-.37-2.61-.42-3.93a310.11,310.11,0,0,0-3.19-35.22c-.19-1.32-.29-2.8-1.79-3.82a7,7,0,0,0-.4,4.72c1.7,9.92,2.66,19.94,4.44,29.84.95,5.33.53,10.77.15,16.16-.08,1.16-.24,2.31-.27,3.78.83-2.83.43-5.43.59-8,.07-1.07-.35-2.42,1.19-2.94,1.25,1.58.94,3.56.94,5.27,0,4.11,0,8.31-2.41,12-.73,1.75-2.3,2.77-3.62,4-11.21,10.12-24.5,16.43-38.76,20.92-5.78,1.82-11.4,4.08-17.38,5.25-16.62,3.26-33.19,4.24-50,.77a116.69,116.69,0,0,1-27.86-9c-6.72-3.28-12.45-8-17.85-13.07-1.69-1.32-1.73-3.34-2.15-5.17-1.85-8-2.77-16.07-3.94-24.14-1.82-12.52-3.52-25.06-5-37.61a225.62,225.62,0,0,1-1.66-35.63c.43-10.34,1.51-20.56,5.39-30.31a40.69,40.69,0,0,1,8.19-12.72c5.24-5.65,11.35-10.28,17.49-14.86,6.87-5.12,13.7-10.31,20.69-15.27,1.54-1.09,2.94-2.47,4.92-2.81a1.55,1.55,0,0,1,.53.82c2.16,9.74,8.45,17.11,14.54,24.45A67.48,67.48,0,0,0,463.51,470c2.24,1.11,4.73,1.58,6.92,2.85,1.22.71,2.42,0,3.48-.73,2.24-1.55,3.06-3.91,3.34-6.45a108.07,108.07,0,0,1,5.61-24.26c1.09-3.07,2.52-6,3.59-9.06a4.09,4.09,0,0,1,3.05-2.64c6.2-1.79,12.54-1.68,18.85-1.28a67.09,67.09,0,0,1,19.24,4.1c3.48,1.3,4.13,2,4.08,5.61-.15,10.15-.54,20.29-.87,30.43-.31,9.48-2.09,18.8-2.52,28.25-.32,7.07.15,14.16-.16,21.23-.26,6-.32,12.09-1.77,18.09-1.12,4.65-1.39,9.53-2.18,14.29-1.77,10.62-5.38,20.33-14.45,27a27.85,27.85,0,0,1-16.48,5.74c-19.08.21-36.32-5.78-52.39-15.64-7.19-4.41-13.64-9.84-20.42-14.81-8.74-6.4-17.82-12.29-26.95-18.12-.46-.3-.92-.75-1.72-.33.25,1.19,1.32,1.6,2.16,2.15q9.43,6.11,18.86,12.25c8.52,5.56,16.27,12.17,24.71,17.84a114.4,114.4,0,0,0,25.06,12.26,101.19,101.19,0,0,0,24,5.78c7.67.82,15.11.18,21.68-4a35.29,35.29,0,0,0,15-19.07,98.89,98.89,0,0,0,4.32-19.73c.75-6.85,2.51-13.66,2.09-20.54-.26-4.33,0-8.65,0-12.93A132.41,132.41,0,0,1,531,486.12a56.5,56.5,0,0,0,.31-6.23c.06-.93-.24-2.09,1.09-2.49,1,.92.61,2.17.77,3.29.14.93.29,1.92,1.42,2.09s1.53-.67,1.83-1.43c1.32-3.42,3.28-6.59,4-10.21a136.22,136.22,0,0,1,4.61-16.34,32.36,32.36,0,0,0,1.85-7.51A3.44,3.44,0,0,1,548.06,444.61Z" transform="translate(-130.3 -173.06)"/><path class="cls-11" d="M426.46,427.23c-10.51,7.17-20.56,15-30.74,22.59a78.64,78.64,0,0,0-15.49,14.78,28.86,28.86,0,0,0-4,7.44,80.25,80.25,0,0,0-5.35,25.26,295.63,295.63,0,0,0,3.31,56.23c1.76,12,3.24,24.07,5,36.09a88.25,88.25,0,0,0,3.42,15.81c-2,.37-1.24,1.9-1.14,3,.71,7.45,1.52,14.9,2.29,22.34a2.6,2.6,0,0,1,0,.53c-.88.34-1.36-.42-1.9-.77Q329.23,596.08,314,535.15a141.78,141.78,0,0,1-4.44-38.35c1.26-48.94,20.32-89.5,57.77-121.17,16.5-13.95,35.4-23.57,56.11-29.65.79-.23,1.62-.36,2.42-.53s1.32,0,2-.13c.85-.11,2.23-.88,2.43-.13.33,1.17,1.16,2.43,0,3.94-3.38,4.24-2.06,12.3,1.45,15.83,1.41,1.42,2.86,2.8,4.15,4.31,2.8,3.29,2.77,7.37,2.79,11.33,0,8.28-1,16.51-1.63,24.76a13.38,13.38,0,0,1-3.45,8.25c-.7,2-2.47,3.23-3.6,5C428.2,421.27,427.43,424.27,426.46,427.23Z" transform="translate(-130.3 -173.06)"/><path class="cls-11" d="M539.57,578.88l1.83.91a1.78,1.78,0,0,1,.9.39c6,5,12.57,5.92,19.79,3.27a5.56,5.56,0,0,0,2.37-.65c4.45-3,9.18-5.74,12.45-10.14,2.45-3.3,5.38-6.33,6.65-10.4a95.46,95.46,0,0,0,5.56-10.3,86.17,86.17,0,0,0,6.6-32.76c.09-6.46.45-13-.4-19.41a4.07,4.07,0,0,1,.62-3.1c.07-7.81-.58-15.59-1.08-23.38-.7-10.87-1.47-21.73-1.34-32.64,0-1.78,1.39-3,1.45-4.65-.52-.68-.17-1.29.24-1.81a8.84,8.84,0,0,0,1.53-7.77c-.19-.86-.5-1.79.14-2.63a9.61,9.61,0,0,0-3.1-7.92c-.71-.63-1.25-1.28-.83-2.31-1.68-2.69-1.9-5.37,0-8.06a144.79,144.79,0,0,1,26.62,63c8.18,48.53-3.5,92-34.6,130.17a150.47,150.47,0,0,1-41,34.7l-2.55,1.44c-.65-3.33-.17-6.39-.24-9.42-.18-8.67-.69-17.31-1.45-25.94-.09-1,.52-3-1.74-2.87.47-2.26.93-4.51,1.4-6.77.71-3.36.12-6.72,0-10.08A.78.78,0,0,1,539.57,578.88Z" transform="translate(-130.3 -173.06)"/><path class="cls-10" d="M476,450.59a5.4,5.4,0,0,0,3.36-4c2-6.68,3.54-13.5,5.86-20.09a15.14,15.14,0,0,0,.43-3.19c1.42-.19.67,1.38,1.61,1.82a16.92,16.92,0,0,0,.87-4.31,20.26,20.26,0,0,1,4-9.31c2.57-3.68,5.7-4.73,10-3.54A36.17,36.17,0,0,0,514.93,409c4.9-.4,10-1.07,14.62,1.74a10.12,10.12,0,0,1,4.31,12.3,53.06,53.06,0,0,0-2,5.65c-.86,3.09-2.17,3.77-5.19,2.79a88.6,88.6,0,0,0-30.05-3.83,8.26,8.26,0,0,0-1,.07c-9.66,1.25-8.79,1.08-11.77,9.16a151.6,151.6,0,0,0-7.43,26.91,17.61,17.61,0,0,1-1.54,5.25c-1.58,3-3.36,3.74-6.3,2a100,100,0,0,1-15.33-10.27,97.94,97.94,0,0,1-21.44-26.11c-3.64-6.38-3.05-12.47,1.54-18.13,1.46-1.8,2.57-1.83,4,0a168.8,168.8,0,0,0,19.68,22.21A66.63,66.63,0,0,0,475,450.44,1.69,1.69,0,0,0,476,450.59Z" transform="translate(-130.3 -173.06)"/><path class="cls-11" d="M548.06,444.61c-.58,6-2.72,11.58-4.47,17.27-1.92,6.23-2.87,12.78-6,18.63-.19.36-.28.78-.48,1.14-.6,1.09-1.17,2.45-2.69,2.13s-2.08-1.72-2-3.28c0-.91,0-1.81,0-2.72-.77-2.7-.29-5.47,0-8.13a139.17,139.17,0,0,0,.34-14.72c-.05-6.48.44-13-.39-19.46a6.63,6.63,0,0,1,.81-3.86c1.14-2.32,2-4.76,2.93-7.16a11.56,11.56,0,0,0-3.46-13.29c-.69-.57-1.59-1-1.68-2-1.25-3.47.18-6.91.18-10.37,0-4.12.72-8.24.83-12.37s.81-8.38-.4-12.56c-.72-2.49,1-2.94,3-2.85,4.16.14,8.08,1.55,12.13,2.28a2.71,2.71,0,0,1,1.81,1.19c1.67,2.15,4.29,1.88,6.53,2.43,1.36.32,1.86.63,2,2.13a125.24,125.24,0,0,1,0,18.78,75.86,75.86,0,0,0,.55,10.84c.06.76.18,1.1-.66,1.47-5.75,2.54-7.82,7.4-9.12,13.26C546.26,430.55,548.63,437.53,548.06,444.61Z" transform="translate(-130.3 -173.06)"/><path class="cls-12" d="M530.94,409.12c6.88,4.61,8.35,10.1,4.91,17.68a26,26,0,0,0-2.53,12.67,216.07,216.07,0,0,1-.9,38.31c-1.2,3.11-.36,6.39-.8,9.59-1.53,11.07-1.27,22.22-1.4,33.37A83.33,83.33,0,0,1,529,535.37c-1,5.36-1.14,10.93-2.42,16.26-1.93,8-4.08,15.82-9.75,22.38-7.85,9.08-17.59,12.53-29.19,11.33a111.76,111.76,0,0,1-56.36-22.42c-12.05-9.06-24.48-17.52-37.2-25.58-.85-.54-1.68-1.09-2.48-1.69s-1.57-1.3-.88-2.27,1.63-.42,2.42.1c4.1,2.7,8.14,5.5,12.31,8.07,12.49,7.7,23.38,17.65,35.81,25.4,16.14,10.06,33.63,16.12,52.88,15.46,8.56-.29,15.45-4.37,21-11.06s7-14.32,8.62-22.25c1.14-5.54,1.56-11.17,2.64-16.73,1.36-6.93,1.31-14.08,1.12-21.15a208.21,208.21,0,0,1,1.69-31.89c1.78-14,1.17-28,1.78-42,.1-2.27-.94-3.17-2.93-3.9a75,75,0,0,0-31.66-4.24c-2.55.2-5.06.9-7.6,1.34-.92.16-1.14.88-1.42,1.56-2.44,5.93-5,11.84-6.53,18.07a96.43,96.43,0,0,0-2.8,15.62c-.25,3.36-1.5,6.36-5,7.77-1.26.51-2.54.95-3.62-.43a2.19,2.19,0,0,0-1.06-.6c-11.77-3.53-20.15-11.72-28-20.57A97.81,97.81,0,0,1,430,437.25a22.87,22.87,0,0,1-3.52-10c0-5.78,3.09-9.93,7.1-13.62a1,1,0,0,0,1-.66c.7-1.58,1.35-1.33,2.21-.07,7,10.08,15.48,18.83,24.18,27.37a38.92,38.92,0,0,0,12.32,8.66,17.49,17.49,0,0,1,2.72,1.68c-1,1.07-1.86.22-2.68-.19A75.49,75.49,0,0,1,452,434.94a188.27,188.27,0,0,1-15.24-18.14c-1.07-1.45-1.67-1.15-2.63-.07a14.74,14.74,0,0,0-2,17.18A92.79,92.79,0,0,0,469,470.61c2.74,1.51,4.17,1,5.51-1.89a20.87,20.87,0,0,0,1.45-5.54c1.78-11.15,5.47-21.73,9.5-32.21.75-2,2.45-2.63,4.26-3a69.13,69.13,0,0,1,22.1-.31,82.79,82.79,0,0,1,16.28,3.54c1.23.42,2.1.3,2.57-1,1.11-3.12,2.91-6.18,3.19-9.38.52-5.87-2.16-9.74-9.26-11.14-3.36-.66-6.82-.12-10.22.09a34.63,34.63,0,0,1-12.11-1c-4.89-1.45-7.73,0-10.45,4.35-2.3,3.66-3,7.69-3.69,11.79-.13.74.09,2-.91,2s-1-1.31-1.21-2.18c-.1-.47-.24-.93-.36-1.39-.61-6.67,2.92-11.36,7.55-15.43a8.21,8.21,0,0,1,8.19-1.67c5,1.66,10,1.35,15,1S526.32,406.6,530.94,409.12Z" transform="translate(-130.3 -173.06)"/><path class="cls-10" d="M497.1,331.13a7.55,7.55,0,0,1,5.22-1.64c5.53-.12,11.05.05,16.58.2,6,.95,12.06.55,18.08.95,4.75.32,9.47,1,14.69,1.64-6.34,4.86-10.14,10.8-11.21,18.27s-.34,14.38,4.62,21.15c-3.4-.73-6.24-1.4-9.1-1.91-1.32-.23-2.7-1.06-4,0-.56-6.72.48-13.33,1.38-19.94a26.36,26.36,0,0,0,.48-3.93c0-.66,0-2.37-1.55-1-2.64-.32-4.15,1.22-5.12,3.34s-1.67,4.11-2.45,6.19c-.19.5-.13,1.19-.89,1.32-.57-2.62.32-5.08,1.14-7.44.92-2.65,1.57-5.43,3.16-7.82a1.45,1.45,0,0,0,.06-1.41c-1-1.5-2.11-.87-3.15-.16-2.36,1.61-3.88,4-5.5,6.27-.72,1-.92,2.52-2.47,2.82.09-2.75,1.81-4.87,2.78-7.28.49-1.21,2-2.43.44-3.9-1.63-1.24-3.16-.7-4.5.45s-3.07,2.28-4,4c-.26.45-.59,1.09-1.36.66.33-1.91,1.5-3.86-.28-5.67-1.33-.23-2.22.58-3,1.4A26.44,26.44,0,0,0,499.78,350c-.76,3.15-1.79,6.23-2.65,9.36-.7,2.51-1.14,2.44-3.53,1.53-2.75-1-3.68-3-4.11-5.66-1.29-8,.8-15.15,5.15-21.77C495.25,332.52,495.77,331.36,497.1,331.13Z" transform="translate(-130.3 -173.06)"/><path class="cls-13" d="M497.1,331.13a32.42,32.42,0,0,0-7.26,17.19,24,24,0,0,0,1,9.57c.68,2.22,3.11,2.25,4.76,3.2.62.36.65-.77.78-1.24,1-3.42,2-6.84,2.87-10.3,1.28-5.2,4.25-9.33,8.08-12.9.72-.67,1.63-2,2.77-.34a25.14,25.14,0,0,0-9.57,13.86,125,125,0,0,0-5.23,24,104,104,0,0,0-.09,14.45c.15,3.81.11,7.64.16,11.46,0,.43,0,.84-.54,1a3.21,3.21,0,0,1-.72-2.5c.27-7.49-1-14.94-.5-22.44a82.77,82.77,0,0,1,1.79-11.53c.33-1.59,0-2.31-1.62-3.16-3.7-2-7.68-3-11.57-4.32a3.8,3.8,0,0,0-3.13-.15.74.74,0,0,1-1.22-.38,3.39,3.39,0,0,0-.57-2.36c-4.58-5.37-3.35-11.27-1.64-17.24a14.16,14.16,0,0,1,4.64-6.94c1.42-1.21,1.6-2.31-.35-3.15-1.26-.48-2.58-.14-3.85-.3-.8-.11-1.88.18-2-1.13,1.92-.77,4-.56,6-.64,2.26-.08,3.63,1.25,4.09,3.47.41,1,1.35,1.09,2.24,1.18,3.17.33,6.3,1,9.5,1A1.41,1.41,0,0,1,497.1,331.13Z" transform="translate(-130.3 -173.06)"/><path class="cls-14" d="M471.06,315.88c2.63-.26,4.92.57,7.25,1.17.91.23,1.77.67,1.65,1.85s-1,1.48-1.95,1.53a10.23,10.23,0,0,1-2.47-.15,15.84,15.84,0,0,0-14.5,4.19c-1.14,1.09-2.34,2.12-3.54,3.15-.5.43-1.08.91-1.78.51s-.63-1.3-.53-2a5.86,5.86,0,0,1,1.54-3.09C460.6,318.7,465.16,315.75,471.06,315.88Z" transform="translate(-130.3 -173.06)"/><path class="cls-15" d="M441.76,350.18a1.83,1.83,0,0,1,.72.06c1,.36,2.85.22,2.45,1.75-.33,1.27-1.7.2-2.57,0a4.64,4.64,0,0,0-4.86,1c-1.31,1.33-.85,3-.47,4.47.71,2.83,2.56,5,4.37,7.18.66.81,1.14.75,1.66-.14a5.29,5.29,0,0,0,.44-4.78c-.22-.61-.47-1.39.41-1.67s1.22.41,1.49,1a5,5,0,0,1-1.1,6c-1.16,1.16-.87,1.87.18,2.82,2,1.78,3.87,3.65,5.77,5.51.41.39.95,1,.59,1.5-.53.75-1.24.18-1.73-.2-5.86-4.51-11.12-9.54-13.41-16.86C434.24,353.14,436.61,350.12,441.76,350.18Z" transform="translate(-130.3 -173.06)"/><path class="cls-16" d="M478,356.55l1,.49c-6.81,3.64-13.54,1.43-15.31-6.44s-.64-15,4.43-21.37c1.52-1.91,3.29-3.42,5.85-3.69,1.24.9,2.65.23,4,.42.85.13,1.8-.23,2.51.55-1.13,1-2.52.66-3.81.66a8.1,8.1,0,0,0-6.73,3.15c-5.06,6.4-6.59,13.46-3.69,21.23,1.52,4,4.87,5.76,9.15,4.92C476.28,356.3,477.18,355.83,478,356.55Z" transform="translate(-130.3 -173.06)"/><path class="cls-17" d="M510.1,312.47c1.15,0,2.24.2,2.55,1.51s-.6,1.84-1.56,2.22a19.87,19.87,0,0,0-5.56,3.29c-.68.58-1.5,1.05-1.63,2.1-.17,1.34-1.15,1.55-2.23,1.33a2,2,0,0,1-1.61-2.19,3.36,3.36,0,0,1,.16-1C501,317,507.14,312.47,510.1,312.47Z" transform="translate(-130.3 -173.06)"/><path class="cls-18" d="M510.35,342a29.89,29.89,0,0,1,5-5.27,5.31,5.31,0,0,1,4.18-1c.76.06,1,.49.69,1.18-4.61-.06-7,2.86-8.58,6.63a37.49,37.49,0,0,1-2.49,5.43c-.26.4-.47,1-1.06.82s-.55-.95-.33-1.49C508.62,346.15,509.49,344.06,510.35,342Z" transform="translate(-130.3 -173.06)"/><path class="cls-19" d="M517,348c2-3,3.54-6.21,6.33-8.54a10.06,10.06,0,0,1,2.87-1.93c1.09-.39,2.47-.45,1.92,1.54-2.17-.68-3.41.84-4.66,2.09-2.45,2.42-3.7,5.63-5.38,8.55-.36.62-.3,2-1.4,1.62s-.21-1.43-.1-2.17A7.34,7.34,0,0,1,517,348Z" transform="translate(-130.3 -173.06)"/><path class="cls-20" d="M523.79,355.78a34.27,34.27,0,0,1,3.41-8.95c1.16-2.24,3.55-3,5-1.9a7.9,7.9,0,0,0-5.18,5.88,30.39,30.39,0,0,1-1.63,4.18C525.14,355.67,524.79,356.46,523.79,355.78Z" transform="translate(-130.3 -173.06)"/><path class="cls-10" d="M594.37,320.06a29.2,29.2,0,0,0-12.48,18.51c-1.74,7.74-1.06,15.18,3.66,22.38-4,0-7.55.06-11.15,0-1.38,0-.83-1-.66-1.83,1.65-7.8,1.49-15.34-3.3-22.2a17.78,17.78,0,0,0-8.73-6.37,4.29,4.29,0,0,0-2.69-.2c-6.06,1.65-12,.45-18-.34-1.72-.23-1.82-1-1.09-2.38a29.82,29.82,0,0,1,7-8.08,3.32,3.32,0,0,1,2.61-.49c5.81.27,11.63.94,17.42.74,6.57-.22,13.14,0,19.7-.38,2.52-.13,5,0,7.58,0Z" transform="translate(-130.3 -173.06)"/><path class="cls-11" d="M587.67,345.5a28,28,0,0,1,5.38-16.24,12.57,12.57,0,0,1,4.34-3.69c3.85-2,7.58-1.14,10.08,2.46a16.89,16.89,0,0,1,2.62,12.35c-.73,5.49-2.39,10.56-6.31,14.61-5.74,5.93-12.25,4.45-15-3.34A20.66,20.66,0,0,1,587.67,345.5Z" transform="translate(-130.3 -173.06)"/><path class="cls-11" d="M546.87,355.28c0-6.19,1.66-11.77,6.24-16.24,4.86-4.74,11.29-3.9,14.55,2.12,3,5.53,2.76,11.33.75,17.13a16.46,16.46,0,0,1-6.51,8.86c-4.72,3.06-9.69,2-12.67-2.82A16.22,16.22,0,0,1,546.87,355.28Z" transform="translate(-130.3 -173.06)"/><path class="cls-21" d="M519,327a2,2,0,0,1-2.25,1.38c-2.31-.21-4.63-.31-7-.4-.92,0-1.07-.35-.87-1.24,1.52-6.81,9.71-11.44,16.36-9.15,1.06.37,2.19.88,2.11,2.36A11.69,11.69,0,0,0,519,327Z" transform="translate(-130.3 -173.06)"/><path class="cls-22" d="M592.6,413.69c-.54.86-1.39.8-2.23.74-6.79-.56-13.63-.24-20.39-1.34a30.35,30.35,0,0,0-11.16.59c-3.2.68-5.24,3.31-6.4,6.17a29.76,29.76,0,0,0-2.35,13.65c.18,2.23.95,3.77,3.69,4.05a107.78,107.78,0,0,0,24.87-.71,30.49,30.49,0,0,1,9.9.57c.6.12,1.49.22,1.39,1.1s-.93.54-1.44.55c-11,.31-22,2.18-33.11,1-2.44-.25-5-.11-6.8-2.36a39.18,39.18,0,0,1,0-14.76,17.6,17.6,0,0,1,6-10.86,8.55,8.55,0,0,1,4.31-1.78c5-.87,9.92-.4,14.86.24a68.83,68.83,0,0,0,12.43.41C588.73,410.85,591.07,411.32,592.6,413.69Z" transform="translate(-130.3 -173.06)"/><path class="cls-23" d="M562.56,583.92c-6.76,3.08-13.11,1.92-19.14-2a11.35,11.35,0,0,1-2-2.17c.26-1.94,1.6-1.63,2.8-1.22s2.43,1.08,3.64,1.63c6.58,3,12.46,1.93,18.15-2.5,16.9-13.15,25.12-30.7,27.09-51.68,1.43-15.17.53-30.25-.76-45.36-.91-10.69-1.91-21.4-1.17-32.16a28.37,28.37,0,0,1,1-6.35c1,.45.65,1.23.67,1.8.24,10.15,0,20.34,1.14,30.44.82,7.43,1.1,14.89,2,22.3a162.4,162.4,0,0,1,.27,28.58c-1.06,12.12-3.92,23.77-10.16,34.4-.67,1.13-1.85,1.93-2.07,3.32-4.6,7.89-11,14.07-18.32,19.38A10.13,10.13,0,0,1,562.56,583.92Z" transform="translate(-130.3 -173.06)"/><path class="cls-24" d="M386.53,462.07a21.79,21.79,0,0,1,7.32,1.42c19.11,6.7,36.93,15.69,51.9,29.61,5.86,5.45,10.79,11.77,15.59,18.16A13.71,13.71,0,0,0,467,516a5.22,5.22,0,0,1,3.39,4.28c1.71,10.93,6.11,20.87,11.39,30.47.52.95,1.06,1.89,1.54,2.86s.93,1.77,0,2.48-1.69-.07-2.34-.73a19.4,19.4,0,0,1-3.41-5.2c-4.69-9.45-8.34-19.24-9.49-29.81a3.7,3.7,0,0,0-2.27-3.08c-3.37-1.5-5.5-4.21-7.53-7.09-9.6-13.7-22.09-24-36.65-32.15-9.47-5.3-19.54-8.84-29.73-12.24a16.28,16.28,0,0,0-6.18-.66c-1.14.07-2.65.39-2.7-1.31s1.52-1.64,2.77-1.7Z" transform="translate(-130.3 -173.06)"/><path class="cls-25" d="M539.57,578.88c-.06.3-.13.6-.19.9-.72,2.6,0,5.26-.36,7.88-.27,1.81-.61,3.53-2.16,5,.09-1.41.12-2.83.29-4.23,1.38-11.08-.68-21.89-2.37-32.74-.78-5-1.49-10-2.19-15.06-.18-1.32-.17-2.66-.22-4,0-.89.18-1.73,1.2-1.91s1.69.55,2,1.51a51.16,51.16,0,0,1,1.5,8.34A323.3,323.3,0,0,1,539.57,578.88Z" transform="translate(-130.3 -173.06)"/><path class="cls-26" d="M467.53,499.28c-.31-6.68,1.94-13.82,4.26-20.94a4.2,4.2,0,0,1,.66-1.32c.48-.6,1.1-1.15,1.92-.7s.4,1.14.25,1.77c-1.05,4.37-2.25,8.7-3.1,13.1a59.35,59.35,0,0,0-.66,16.14c.1,1.25.39,3.33-.9,3.47s-1.32-1.94-1.64-3.17A25.33,25.33,0,0,1,467.53,499.28Z" transform="translate(-130.3 -173.06)"/><path class="cls-27" d="M596.88,423.81c1.48,4.4,1.2,8.53-1.91,12.21a17.14,17.14,0,0,1-1.41,1c-.5.28-1.07.57-1.6.06s-.13-1.06.24-1.5c3.43-4.24,2.8-8.82,1-13.45-.75-2-1.67-3.91-2.26-6C594,417.88,595.41,420.87,596.88,423.81Z" transform="translate(-130.3 -173.06)"/><path class="cls-28" d="M483,529.53c-.11.26-.16.67-.38.79-.46.27-.78-.09-1-.48-2.18-4.92-6.38-8-10.34-11.23-1-.81-2.09-1.79-1-3.12.93-1.09,2.18-.64,3.13.15,4.1,3.44,8,7.07,9.19,12.62C482.77,528.66,482.89,529.05,483,529.53Z" transform="translate(-130.3 -173.06)"/><path class="cls-29" d="M562.56,583.92a72.62,72.62,0,0,0,19.84-19.07c.46-.66,1.05-1.24,1.58-1.86a42.9,42.9,0,0,1-9.74,13.31A94.07,94.07,0,0,1,565.3,583,3.15,3.15,0,0,1,562.56,583.92Z" transform="translate(-130.3 -173.06)"/><path class="cls-10" d="M478,356.55c-8.42,2.84-12.13-1.6-13.41-8.49-1.37-7.37.75-13.6,5.65-19,2.82-3.13,6.57-2.7,10.24-2.52,2.46,1.55,2.54,2,.38,4-5.76,5.22-6.81,11.81-5.56,19.06.34,2,1.77,3.35,2.94,4.84C479,355.27,479.17,355.94,478,356.55Z" transform="translate(-130.3 -173.06)"/><path class="cls-30" d="M605.6,341.18c-.16,1.35-.34,3.09-2.27,3.13s-2.42-1.54-2.49-3.14a2.5,2.5,0,0,1,2.52-2.82C605.07,338.25,605.57,339.51,605.6,341.18Z" transform="translate(-130.3 -173.06)"/><path class="cls-14" d="M564.69,353c-.19,1.6-.93,2.88-2.74,2.86s-2.5-1.17-2.38-2.84.85-2.94,2.7-2.94S564.61,351.31,564.69,353Z" transform="translate(-130.3 -173.06)"/></svg>