<svg id="Layer_1" data-name="Layer 1" xmlns="http://www.w3.org/2000/svg" viewBox="0 0 787.25 732.29"><defs><style>.cls-1{fill:#1b51da;}.cls-2{fill:#f8e8e7;}.cls-3{fill:#0c0016;}.cls-4{fill:#010101;}.cls-5{fill:#4d4d4d;}.cls-6{fill:#081942;}.cls-7{fill:#505050;}.cls-8{fill:#121b25;}.cls-9{fill:#3684d0;}.cls-10{fill:#fefefe;}.cls-11{fill:#010304;}.cls-12{fill:#010102;}.cls-13{fill:#050505;}.cls-14{fill:#232121;}.cls-15{fill:#172029;}.cls-16{fill:#0b0a0a;}.cls-17{fill:#28313c;}.cls-18{fill:#191f26;}.cls-19{fill:#1a2129;}.cls-20{fill:#3684cf;}.cls-21{fill:#030507;}.cls-22{fill:#020305;}.cls-23{fill:#04090e;}.cls-24{fill:#020406;}.cls-25{fill:#03060a;}.cls-26{fill:#05090d;}.cls-27{fill:#03070b;}.cls-28{fill:#4e85b9;}.cls-29{fill:#0b0b0b;}</style></defs><path class="cls-1" d="M169.28,231.93c2.5,7.12,4.92,15,7.34,21.94,3.41,9.67,7.81,19.94,11.19,29.6-.22.25-1.29-.2-1.62-.11-3.92,1.2-3.92,1.2-3.93,5.4,0,14,1.12,27.93,1.05,41.91,0,1.74.42,3.46.53,5.21.1,1.45.92,2,2.36,1.89,6.81-.49,13.64-.15,20.47-.21,2.5,0,5-.66,7.46-.51,1.14.07,2.37-.18,3.23.9,4.48,6.9,9.41,13.47,14.48,19.94a366.52,366.52,0,0,0,41.94,45.41,350.44,350.44,0,0,0,31.67,25l2,1.47c.73.92.12,1.76-.2,2.57a177,177,0,0,0-11.44,46.18c-.53,4.7-.55,9.46-.74,14.2a161.29,161.29,0,0,0,5.35,47.43A173.42,173.42,0,0,0,447.67,669a159.84,159.84,0,0,0,27.92,1.06,173.81,173.81,0,0,0,143.68-88.4,176.57,176.57,0,0,0,10.48-22.11c.47-1.18.66-2.65,2.25-3a171.66,171.66,0,0,0,22.68-.08c1.75-.16,2-.83,2-2.27,0-9.41,0-18.82,0-28.23q-.07-59.24-.14-118.46c0-1-.25-2.36.79-2.68,1.24-.38,2.22.81,3.06,1.64q8.7,8.43,17.33,16.95,61.74,60.9,123.46,121.82,39.84,39.31,79.71,78.62,13.51,13.33,26.95,26.76c3.05,3,3.06,3.15.11,6.15q-28.92,29.4-57.86,58.77L693.34,874.76Q678.7,889.64,664,904.45c-.47.48-1,.92-1.45,1.38s-1.12,1.31-2.11.94-1.09-1.37-1.11-2.28c-.13-5.92-.35-11.83-.36-17.74q-.08-66.48-.07-133c0-3.15-.13-3.21-3.4-3.36-11.18-.49-22.28-1.79-33.38-3.22-8.37-1.09-16.75-2.06-25.08-3.43-11.62-1.9-23.13-4.35-34.65-6.78-4-.85-8.12-1.61-12.16-2.52-1.61-.37-2,.11-2,1.69.09,5.24.45,10.48.1,15.72-1.54-.21-1.06-1.48-1.09-2.32-.1-3.92,0-7.83,0-11.75,0-6,0-12,0-18,0-3.47-.32-3.74-3.66-3.8-18.65-.32-37.29.68-55.94.56-.67,0-1.33.06-2,0-2.6-.18-3.13-.74-3.38-3.32a89.15,89.15,0,0,1-.53-10.46c0-.86.35-2.05-.7-2.44-.86-.31-1.43.68-2,1.23-3.19,3-6.09,6.4-9.58,9.12a4.33,4.33,0,0,1-2.11,1.26c-1.28-1.12-2.93-1.49-4.45-2-19.5-7.17-38.88-14.63-57.77-23.27-14.53-6.65-28.66-14.11-42.7-21.72-21-11.38-41.52-23.49-60.52-38.07-22.81-17.51-45-35.7-65-56.46A433.66,433.66,0,0,1,206.05,535c-17.22-22.28-31.4-46.41-43.52-71.76A284.69,284.69,0,0,1,143,408.82c-3.27-13.23-6.12-26.53-7.46-40.11a313,313,0,0,1-1.74-32.12c0-9.31.27-22.71.9-32a205.24,205.24,0,0,1,4.95-32.79c4.87-21.64,13.05-39.8,22-60,.17-.38.35-.74.79-1.67,2.09,6.91,4,13.34,6,19.77a2.5,2.5,0,0,1,.17,1.6,465.31,465.31,0,0,0-10.07,53.13c-1.48,11.87-2.43,23.79-3,35.75-.48,9.66-.46,19.31-.12,28.94a315.82,315.82,0,0,0,3,33.75,275.24,275.24,0,0,0,5.58,28.38c4.77,18.74,11.76,36.57,22.49,52.78A145.8,145.8,0,0,1,178.09,450c-2.46-4.92-4.73-9.91-6.73-15s-3.79-10.48-5.38-15.83a260,260,0,0,1-9.37-49.67c-.84-8.59-1.17-17.24-1.44-25.89a363.31,363.31,0,0,1,1.39-41.35,411.37,411.37,0,0,1,8.59-56.15c.78-3.49,1.43-7,2.39-10.45C167.78,234.8,168,232.21,169.28,231.93Z" transform="translate(-133.75 -174.58)"/><path d="M632,556.52c-2.24,3.54-3.3,7.59-5,11.36-14.41,31.51-36,56.84-65.22,75.51-25.13,16.05-52.6,25.36-82.42,27-55.2,3-101.86-16-139.49-56.25-24.56-26.3-39-57.8-44-93.48A172.83,172.83,0,0,1,307,431.2c.18-.46.3-.94.44-1.41,4.08-8.85,8.28-17.63,13.57-25.84q37-57.42,102.89-75.43a7.38,7.38,0,0,1,1.21-.3c2.14-.24,2.69-1,1.71-3.2a41.53,41.53,0,0,1-3.15-22.71c2.18-14.88,10-25.64,24.69-30.7,8.36-2.89,16.66-2.4,25-.07,7.5,2.09,15.13,3.16,22.93,2.2,6.45-.8,12.63-2.86,19-4.18,4.78-1,9.58-2.24,14.56-1.37a14.38,14.38,0,0,1,4.27,1.35c3.2,1.69,4.12,4.19,2.6,7.49-1.11,2.42-2.51,4.7-3.65,7.11-1.74,3.7-1.06,5.42,2.69,7.06a12.86,12.86,0,0,1,4.61,2.91,3.9,3.9,0,0,1,0,5.78,7.74,7.74,0,0,1-2.64,1.85,77.61,77.61,0,0,1-7.28,3.28,12.91,12.91,0,0,0-8.54,8.72c-1.67.8-2-.67-2.44-1.59-.76-1.57-1.24-3.27-2.08-4.81a8.48,8.48,0,0,0-7.84-4.81,73.11,73.11,0,0,0-14.6,1.61,104.24,104.24,0,0,1-28.33,1,46,46,0,0,0-6,0c-3.63.17-6.12,2.21-7.29,5.78-1.62,4.95-1.36,10-.92,15.09.52,5.88,1.2,11.73.76,17.66-.22,3.12-.94,3.7-3.91,2.69a23.43,23.43,0,0,0-8.09-1.28,6.59,6.59,0,0,0-4.44,1.31c-.74.64-1.76.78-2.16-.09-1.17-2.61-3-1.69-4.75-1.07a156.12,156.12,0,0,0-95.64,74.36A157.13,157.13,0,0,0,315.14,476a143.2,143.2,0,0,0-1.42,27.89,164.23,164.23,0,0,0,10.42,49.91,156.21,156.21,0,0,0,29.54,48.33,150.77,150.77,0,0,0,30.84,26.43,4.25,4.25,0,0,0,1.85.86c-.42-4.25-.9-8.41-1.31-12.58-.32-3.31-.94-6.6-.73-10,.07-1.13,0-2.47,1.71-2.49,2.19.81,3.56,2.69,5.26,4.11,11.45,9.56,24.76,14.69,39.29,17.21,5.57,1,11.09,2.12,16.74,2.65,3,.28,5.81-.36,8.69-.25a99.3,99.3,0,0,0,32.49-4.57c13.94-4.18,27.81-8.75,40-17.16A115.5,115.5,0,0,0,541.2,596c2-.88,2.34.75,2.55,2a84.65,84.65,0,0,1,.84,9.68c.43,7.56.68,15.12.55,22.7,0,2.46.31,2.62,2.56,1.36a142,142,0,0,0,23.46-16.91,153.64,153.64,0,0,0,32.09-38.95,157.55,157.55,0,0,0-4.57-167c-.95-1.44-2.5-2.5-2.84-4.35-.31-4.51.85-8.89,1.14-13.35a25.2,25.2,0,0,1,1.11-7.36c.33-.88.41-2,1.82-1.92A188.82,188.82,0,0,1,621.83,414a174,174,0,0,1,20.35,87.08,176.48,176.48,0,0,1-8.75,50.27C632.88,553.06,631.6,554.57,632,556.52Z" transform="translate(-133.75 -174.58)"/><path class="cls-2" d="M429.33,344.76l2.82-.94c1.4-.47,2.59-.71,2.53,1.48,0,.39.37,2,1.33.84,2.32-2.71,5.31-1.94,8.13-1.76a15.55,15.55,0,0,1,6,1.55c1.69.83,2.82.59,2.39-1.67s.2-4.27.17-6.41c-.06-5.58-1.21-11.06-1.28-16.65a41.4,41.4,0,0,1,1-10.13,8.16,8.16,0,0,1,8.21-6.68c7.48-.07,14.94.66,22.44.38,6.94-.25,13.64-2,20.49-2.72A27.72,27.72,0,0,1,512,302a7.58,7.58,0,0,1,5.5,3.94,41.62,41.62,0,0,1,2.69,6.16c.25.8.32,1.94,1.7,1.64-.23.65-.15,1.12.67,1.18-.16.91-1,1.12-1.63,1.34-4.43,1.5-7,4.93-8.87,8.88a4.59,4.59,0,0,1-4.07,3c-2.66.33-5.43.06-8,1.47-1.57.87-3.42-.11-5.14-.16-2.54-.07-5.14-.17-7.51-1.35-2.33-4.41-6.17-3.1-9.8-2.58a7.41,7.41,0,0,0-5.16,3.16c-5.52,6.8-6.64,14.49-4.08,22.71,1.45,4.67,5.58,6.68,10.74,5.61a11.93,11.93,0,0,0,3.51-1.23,4,4,0,0,1,2.92-.05c4,1.23,8,2.32,11.65,4.38,1.91,1.06,2.69,2.18,2.18,4.36A68.37,68.37,0,0,0,497.74,385c.3,4.48.47,8.95.43,13,.51-5.57-.5-11.51-.47-17.48a94.39,94.39,0,0,1,4.38-27c1.05-3.48,1.58-7.19,3.65-10.3s3.78-6.54,7.68-7.84c1.66.09,1.63,1.35,1.7,2.5a8.23,8.23,0,0,1-.53,2.9c-.73,2.2-2,4.21-2.39,6.55a10.6,10.6,0,0,0,2-4,13,13,0,0,1,3.45-5.42,6.4,6.4,0,0,1,6.06-2.15c1.73.65,1.18,1.94.79,3.1-.63,1.88-1.73,3.56-2.53,5.37a10.46,10.46,0,0,0-.85,2.84,14.48,14.48,0,0,0-.45,2.32,51.81,51.81,0,0,1,4.26-7.42,12.27,12.27,0,0,1,4.13-3.85,2.47,2.47,0,0,1,2.59,0c1,1.06.23,2-.18,3a53.55,53.55,0,0,0-3.65,11.38c-.09.49-.28,1,.12,1.39,1.32-.85,1.53-2.34,1.88-3.6a10,10,0,0,1,5.61-6.83c2-.14,2.66.38,2.42,2.45-.43,3.86-1.12,7.69-1.4,11.56-.27,3.68-.95,7.37-.25,11.07.21.89,2.5.32,1.48,2.09-1.61.58-2,1.74-1.75,3.35,1.29,7.7-.16,15.36-.46,23-.15,3.71-.68,7.41-.85,11.13-.85.82-1.72.28-2.55,0-3.94-1.36-8-1.3-12-.95-4.78.41-9.56.76-14.3-.78a9.11,9.11,0,0,0-9.52,2c-3.89,3.69-6.86,7.92-6.52,13.68.29,3.1-1.07,5.84-2,8.68-1.6,5.15-2.77,10.42-4.51,15.53-.59,1.72-1.38,3.21-3.31,3.72a21.58,21.58,0,0,1-6.75-3A59.9,59.9,0,0,1,463,439c-8.1-7.92-15.87-16.11-22.51-25.32-.71-1-1.34-1.68-2.62-.81a.67.67,0,0,1-1.12-.47c4.14-5.72,3-12.55,3.89-18.94a108.66,108.66,0,0,0,.64-15.94,14.12,14.12,0,0,0-4.89-11,15,15,0,0,1-5.32-11.4,11.22,11.22,0,0,1,1.27-5.77,6.91,6.91,0,0,0,.9-4.93C432.05,345.23,430.79,345.89,429.33,344.76Z" transform="translate(-133.75 -174.58)"/><path class="cls-3" d="M217.36,338c-10.31.22-20.63.4-31,.68-3,.08-3.41-.1-3.52-3q-.54-14.85-1-29.7c-.2-6.24-.4-12.48-.51-18.72-.07-4.15,0-4.15,4.14-4.25.5,0,1-.08,1.49-.12,6.57-.15,13.15-.28,19.72-.46,19.14-.53,38.28-1.12,57.43-1.58,1.84,0,2.4-.45,2.33-2.37-.21-6-.2-12-.26-18,0-1-.23-2.2.9-2.65s1.61.63,2.28,1.21l52.44,45.85c2.25,2,2.25,2.43.1,4.54Q296.87,334,271.78,358.5c-.6.6-1.08,1.7-2.22,1.17s-.85-1.6-.87-2.44c-.12-5.91-.24-11.83-.16-17.74,0-2.11-.4-2.85-2.72-2.78C249.67,337.21,233.51,337.55,217.36,338Z" transform="translate(-133.75 -174.58)"/><path class="cls-3" d="M467.27,712l12.85-12.55c.44-.43.94-.78,1.55-.51s.69,1.06.72,1.73c.14,4.33.37,8.65.4,13,0,1.66.38,2.39,2.2,2.35,8.74-.2,17.49-.31,26.23-.43,11.49-.14,23-.24,34.47-.41,2,0,2.12,1.15,2.13,2.59.06,7.92.08,15.83.21,23.74.06,3.47-.26,7,.29,10.41,0,.16,0,.32.06.49.25,4.9.16,5.07-4.68,5.18-19.13.45-38.27.9-57.4,1.22-2.32,0-3,.63-2.85,2.94.31,4,.36,8,.48,12,0,.86.38,2-.73,2.42-.95.38-1.51-.53-2.1-1L446,743.64c-1.42-1.28-2.83-2.57-4.3-3.8s-1.41-2.15,0-3.45c5.89-5.52,11.66-11.15,17.54-16.68C461.88,717.16,464.29,714.27,467.27,712Z" transform="translate(-133.75 -174.58)"/><path class="cls-4" d="M538,370.28c-.81-.55-2-.24-2.64-1.19.5-1.52,1.75-1,2.73-.91a80,80,0,0,1,8.62,1.78,30.74,30.74,0,0,1,6.3-37.91c-4.76-.38-9.21-1.46-13.76-1.49-4.9,0-9.8-.12-14.69-.55-.83-.08-1.68,0-2.29-.76a11.47,11.47,0,0,1-.35-3,10.89,10.89,0,0,1,9.57-7.48c5.47.47,10.92,1,16.42.55,3.46-3.51,7.88-2.35,11.85-2a234.69,234.69,0,0,0,26.65.45c3.41-.07,6.81,0,10.21.18a14.51,14.51,0,0,0,4.94-.34c5.91-1.74,11.25.17,14.81,5.33,4,5.83,4.53,12.34,3.51,19.12a36.12,36.12,0,0,1-6.5,15.22,19.2,19.2,0,0,1-13.64,8.21,10.23,10.23,0,0,1-6.95-1.45c-4.65-3-9.81-1.84-14.83-1.82-1.14,0-1.65,1-2.12,1.91A24.62,24.62,0,0,1,565,374.75a2.89,2.89,0,0,0-1.71,3.23c.88,8.88.21,17.79.4,26.69,0,.33,0-.09,0,.24-.11,1.23,0,3-1.51,3-1.76,0-1.36-1.76-1.37-2.9,0-8.32,0-16.64,0-25,0-3.72,0-3.69-3.59-4.09a17.75,17.75,0,0,1-5.21-1.63c-3.07-2.12-6.83-1.83-10.2-2.89C540.51,371.05,539.07,371.3,538,370.28Z" transform="translate(-133.75 -174.58)"/><path class="cls-2" d="M552,373.75c2.49,1,5,1.87,7.72,1.68,1.1-.08,1.45.38,1.52,1.42.41,6.31.23,12.64.22,18.95,0,3.42-.1,6.83-.11,10.24,0,.69-.15,1.76.86,1.74.72,0,.74-1,.74-1.66,0-5.33-.07-10.66,0-16a130.62,130.62,0,0,0-.37-13.71c-.12-1.14.44-1.63,1.4-2a21.85,21.85,0,0,0,11.46-11,3.17,3.17,0,0,1,3.44-2.06c2.75.11,5.5,0,8.25,0a9.23,9.23,0,0,1,5.55,1.68c5.11,3.6,12.76,2.11,18.17-3.21.89-.87,1.76-1.75,2.64-2.62-2.2,4.35-6,6.69-10.51,7.88-1.76.47-1.89,1.14-2,2.62-.26,3.35-.7,6.69-1.23,10a7.18,7.18,0,0,0,.25,4.11c-1.55.58-1.18,2.13-1.33,3.19-.9,6.07-1.59,12.17-2.33,18.26a6.89,6.89,0,0,0,.15,1.48c-.88,2.71-.36,5.42,0,8.13a1.3,1.3,0,0,1-.78.09c-2.36-1.87-5.09-2.17-8-2a70.73,70.73,0,0,1-14.89-.91,39.36,39.36,0,0,0-8.68,0c-5.89.31-9.9,5.82-10.86,10.19a39.93,39.93,0,0,0-.54,16.75c0,1.49.12,3,0,4.45-.06.89,0,1.84-.95,2.39-1.23-.63-1-1.83-1-2.84.06-3.17-.69-6.3-.73-9.41-.08-7.69.1-15.66,6.94-20.87a7.33,7.33,0,0,0,3.21-7.24c-.57-7,.13-14.07,0-21.1a14.69,14.69,0,0,0-.15-2c-.45-3.23-.48-3.11-3.67-4C554.75,376,552.37,376.38,552,373.75Z" transform="translate(-133.75 -174.58)"/><path class="cls-5" d="M921,640.14c-.23.33-.34.66-.49.68a1.29,1.29,0,0,1-.92-.18c-.79-.74-1.49-1.56-2.27-2.32L778.53,502.45q-54.64-53.52-109.3-107c-.89-.88-1.87-1.66-2.77-2.52-.4-.39-1-.86-.48-1.46s1.07,0,1.46.35c.83.82,1.58,1.71,2.42,2.53L918.32,637.56C919.2,638.42,920.09,639.27,921,640.14Z" transform="translate(-133.75 -174.58)"/><path class="cls-6" d="M169,233.31c-2.28,6.88-3.51,14-4.89,21.1a436.59,436.59,0,0,0-7.77,61.06c-.66,12.58-.77,25.13-.19,37.68,1.28,27.48,5.52,54.44,15.34,80.29,4.21,11.08,9.29,21.74,16.2,31.44.35.49,1,1,.48,1.88-1.22-.19-1.63-1.23-2.2-2.08-9-13.4-15.31-28-20-43.41-6-19.75-9.2-40-10.64-60.55a352.32,352.32,0,0,1-.72-35.44,427.66,427.66,0,0,1,13.17-92.93c.13-.48.29-1,.44-1.43,1,.09.24,1.06.71,1.42Z" transform="translate(-133.75 -174.58)"/><path class="cls-7" d="M392.34,322.49a1.57,1.57,0,0,1-1.31,1c-9.95,2.9-18.89,7.85-27.36,13.68-22,15.17-41,33.41-56.15,55.56-1.4,2.06-2.56,4.29-3.83,6.44-.36.6-.59,1.79-1.45,1.3-1.08-.61,0-1.45.34-2.09a168.32,168.32,0,0,1,23.5-30.67c14.77-15.43,30.9-29.13,49.8-39.31a71.38,71.38,0,0,1,13.3-5.71C390.18,322.4,391.18,321.91,392.34,322.49Z" transform="translate(-133.75 -174.58)"/><path class="cls-8" d="M522.43,326.3a4,4,0,0,1-.09,2.71,4.91,4.91,0,0,1-3.12.57c-3.49,0-7,.07-10.46,0a20.09,20.09,0,0,0-8.07,1.08,62.6,62.6,0,0,1-10.84-1.14c-1-.18-2.49-.06-2.33-1.84A32.15,32.15,0,0,0,499.3,329c2.29-.15,4.84-1.39,7.35-1.46,2.8-.08,4.15-1.16,5.39-3.82a15.44,15.44,0,0,1,10.54-8.81,25.69,25.69,0,0,1,5.67.34,4.1,4.1,0,0,1,3.12,1.81c.93,1.67,2.22,1.79,3.91,1.79,4.22,0,8.44.27,12.66.42-3,1.2-6.19.63-9.23.42-2.62-.19-5.27-.15-7.88-.45a9.74,9.74,0,0,0-13.82,1,17.58,17.58,0,0,0-3.42,4.56c-.53,1.22-.4,2,1.12,1.87C517.28,326.51,519.93,327.88,522.43,326.3Z" transform="translate(-133.75 -174.58)"/><path class="cls-6" d="M168.36,235.09l-.73-1.44c.05-.35.06-.84.1-1.19a450.56,450.56,0,0,1,17.67-52.72c.57-1.4,1.13-2.81,1.72-4.21.19-.44.35-1.13,1-.91.86.29.38.95.17,1.46-1.25,3.12-2.54,6.24-3.77,9.37a427,427,0,0,0-15.44,47.49C168.87,233.67,168.58,234.37,168.36,235.09Z" transform="translate(-133.75 -174.58)"/><path class="cls-9" d="M551.51,443.92c1-2.24.39-4.58.51-6.88,5.8,2,11.84,2.18,17.87,2,6.48-.2,12.92-1.18,19.43-1.07a2.32,2.32,0,0,0,1.62-.54c-2.7-.26-5.34-1.07-8.06-.64a123.65,123.65,0,0,1-21.15,1.29,37.25,37.25,0,0,1-5-.52A4,4,0,0,1,553,433.8c-.46-7.19.17-14.16,5.8-19.61a7.83,7.83,0,0,1,4.65-2.15,47.15,47.15,0,0,1,13.68,0c6.28,1,12.65.13,18.93,1a.61.61,0,0,1,.35-.11,34.93,34.93,0,0,0,2.47,3.36c1.67,2,2.58,4.35,1.71,7.06-1.25.26-1.25-.87-1.58-1.51a28.74,28.74,0,0,0-3.64-5.24c3.41,7.73,4.84,12.44,1,18.76.61.86,2.23-1.23,2.43.81-1.69,4.94-1.12,10-.88,15.06.27,5.55.61,11.09.83,16.64.24,5.88,1,11.73,1.29,17.61.17,3.55.66,7.1-.27,10.62-1.33-.23-1.41-.24-1.47-1.93-.11-2.91-.14-5.81-.46-8.72-1.47-13.64-2.55-27.32-2.09-41.07-1.05,9.69-.33,19.35.26,29,.49,8.22,1.72,16.37,1.79,24.64,0,4.72.58,9.47.38,14.21-.46,11.07-1.1,22.16-4.88,32.71-4.14,11.52-10.1,21.91-20,29.63-1,.77-1.91,1.61-2.84,2.44-5.88,5.28-12.4,6.35-19.66,3.1-1.76-.79-3.55-2.07-5.64-.75-1.23.38-1.82-.55-2.54-1.23-.59-1.26-.37-2.61-.42-3.93A312.42,312.42,0,0,0,539,539c-.2-1.32-.29-2.8-1.79-3.82a7,7,0,0,0-.4,4.72c1.7,9.92,2.66,19.94,4.44,29.84,1,5.33.52,10.77.15,16.16-.08,1.16-.24,2.31-.28,3.78.84-2.83.44-5.43.6-8,.07-1.07-.35-2.42,1.19-2.94,1.25,1.58.94,3.56.94,5.27,0,4.11,0,8.31-2.41,12-.73,1.75-2.3,2.77-3.62,4-11.21,10.12-24.5,16.43-38.77,20.92-5.77,1.82-11.39,4.08-17.37,5.25-16.62,3.26-33.19,4.24-50,.77a116.69,116.69,0,0,1-27.86-9c-6.72-3.28-12.45-8-17.85-13.07-1.69-1.32-1.73-3.34-2.16-5.17-1.84-8-2.76-16.07-3.93-24.14-1.82-12.52-3.53-25.06-5-37.61a225.62,225.62,0,0,1-1.66-35.63c.43-10.34,1.5-20.56,5.39-30.31a40.84,40.84,0,0,1,8.18-12.72c5.25-5.65,11.36-10.28,17.5-14.85C411.21,439.18,418,434,425,429c1.54-1.09,2.94-2.47,4.91-2.81a1.56,1.56,0,0,1,.54.82c2.16,9.74,8.44,17.11,14.54,24.45A67.55,67.55,0,0,0,467,469.33c2.25,1.11,4.73,1.58,6.92,2.85,1.23.71,2.43,0,3.48-.73,2.25-1.55,3.07-3.91,3.35-6.45a107.53,107.53,0,0,1,5.61-24.26c1.08-3.07,2.52-6,3.59-9.06A4.09,4.09,0,0,1,493,429c6.2-1.79,12.54-1.68,18.85-1.28a67.09,67.09,0,0,1,19.24,4.1c3.48,1.3,4.13,2,4.08,5.61-.15,10.15-.54,20.29-.87,30.43-.31,9.48-2.1,18.8-2.52,28.25-.32,7.07.15,14.16-.16,21.23-.26,6-.32,12.09-1.77,18.09-1.12,4.65-1.39,9.53-2.18,14.29-1.77,10.62-5.38,20.33-14.45,27a27.85,27.85,0,0,1-16.48,5.74c-19.09.21-36.32-5.78-52.4-15.64-7.18-4.41-13.63-9.84-20.42-14.81-8.73-6.4-17.81-12.29-26.94-18.12-.46-.29-.92-.75-1.72-.33.25,1.19,1.32,1.6,2.16,2.15q9.44,6.1,18.86,12.25c8.51,5.56,16.27,12.17,24.71,17.84A114.18,114.18,0,0,0,466,578.09a101.58,101.58,0,0,0,24,5.79c7.67.81,15.11.17,21.68-4a35.29,35.29,0,0,0,15-19.07A98.87,98.87,0,0,0,530.91,541c.76-6.85,2.52-13.66,2.1-20.54-.26-4.33,0-8.65,0-12.92a132.46,132.46,0,0,1,1.48-22.14,56.38,56.38,0,0,0,.31-6.23c.05-.93-.24-2.09,1.09-2.49,1,.92.61,2.17.77,3.29.14.93.29,1.93,1.42,2.09,1,.14,1.53-.67,1.83-1.43,1.32-3.41,3.28-6.58,4-10.21a136.22,136.22,0,0,1,4.61-16.34,32.87,32.87,0,0,0,1.85-7.51A3.41,3.41,0,0,1,551.51,443.92Z" transform="translate(-133.75 -174.58)"/><path class="cls-10" d="M429.91,426.54c-10.51,7.17-20.56,15-30.74,22.59a78.64,78.64,0,0,0-15.49,14.78,29,29,0,0,0-4,7.44,80.54,80.54,0,0,0-5.36,25.26,295.64,295.64,0,0,0,3.32,56.23c1.76,12,3.24,24.07,5,36.09A88.25,88.25,0,0,0,386,604.74c-2,.37-1.24,1.9-1.14,3,.71,7.45,1.52,14.9,2.29,22.34a2.68,2.68,0,0,1-.05.53c-.87.34-1.35-.42-1.89-.77q-52.55-34.41-67.76-95.34A142.17,142.17,0,0,1,313,496.11c1.26-48.94,20.32-89.5,57.77-121.17,16.5-13.95,35.4-23.57,56.11-29.65.79-.23,1.61-.36,2.42-.53s1.31,0,2-.13c.86-.11,2.23-.88,2.44-.13.32,1.17,1.16,2.44,0,3.94-3.38,4.24-2.07,12.3,1.45,15.83,1.4,1.42,2.85,2.8,4.15,4.31,2.8,3.29,2.77,7.37,2.79,11.33,0,8.28-1,16.51-1.63,24.76a13.36,13.36,0,0,1-3.45,8.25c-.7,2-2.47,3.23-3.6,5C431.65,420.58,430.88,423.58,429.91,426.54Z" transform="translate(-133.75 -174.58)"/><path class="cls-10" d="M543,578.19l1.83.91a1.78,1.78,0,0,1,.9.39c6,5,12.57,5.92,19.78,3.27a5.56,5.56,0,0,0,2.38-.65c4.44-3,9.18-5.74,12.45-10.14,2.44-3.3,5.37-6.33,6.64-10.4a95.54,95.54,0,0,0,5.57-10.3,85.93,85.93,0,0,0,6.59-32.76c.1-6.46.46-12.95-.39-19.41a4,4,0,0,1,.62-3.1c.07-7.81-.58-15.59-1.08-23.38-.7-10.87-1.47-21.73-1.34-32.64,0-1.78,1.38-3,1.45-4.65-.52-.68-.17-1.29.24-1.81a8.8,8.8,0,0,0,1.52-7.77,2.94,2.94,0,0,1,.15-2.63,9.61,9.61,0,0,0-3.1-7.92c-.71-.63-1.25-1.28-.83-2.31-1.68-2.69-1.9-5.37,0-8.06a144.79,144.79,0,0,1,26.62,63c8.18,48.53-3.5,92-34.6,130.17a150.51,150.51,0,0,1-41,34.7c-.77.45-1.55.88-2.54,1.44-.65-3.33-.17-6.39-.24-9.42-.19-8.67-.69-17.31-1.45-25.94-.09-1,.52-3-1.74-2.87.46-2.26.93-4.51,1.4-6.77.71-3.36.11-6.72,0-10.08A.78.78,0,0,1,543,578.19Z" transform="translate(-133.75 -174.58)"/><path class="cls-9" d="M479.4,449.9a5.37,5.37,0,0,0,3.35-4c2-6.68,3.54-13.5,5.87-20.09a15.14,15.14,0,0,0,.43-3.19c1.42-.19.67,1.38,1.61,1.82a16.91,16.91,0,0,0,.86-4.31,20.52,20.52,0,0,1,4-9.31c2.58-3.68,5.71-4.73,10-3.54a36.15,36.15,0,0,0,12.83,1.06c4.9-.4,10-1.07,14.61,1.75a10.1,10.1,0,0,1,4.32,12.29,49,49,0,0,0-1.95,5.65c-.87,3.09-2.17,3.77-5.19,2.79a88.6,88.6,0,0,0-30-3.83,8.26,8.26,0,0,0-1,.07c-9.66,1.25-8.79,1.08-11.77,9.16a151.6,151.6,0,0,0-7.43,26.91,17.63,17.63,0,0,1-1.55,5.25c-1.58,3-3.36,3.74-6.29,2a100.11,100.11,0,0,1-15.34-10.27,98.09,98.09,0,0,1-21.43-26.11c-3.65-6.38-3.05-12.47,1.54-18.13,1.46-1.8,2.57-1.83,4,0a169.6,169.6,0,0,0,19.69,22.21,66.73,66.73,0,0,0,17.92,11.6A1.74,1.74,0,0,0,479.4,449.9Z" transform="translate(-133.75 -174.58)"/><path class="cls-10" d="M551.51,443.92c-.58,6-2.72,11.58-4.48,17.27-1.92,6.23-2.86,12.78-6,18.63-.19.36-.28.78-.48,1.14-.6,1.09-1.17,2.45-2.69,2.13s-2.08-1.72-2-3.28c0-.91,0-1.81,0-2.72-.76-2.7-.28-5.47,0-8.13a139.17,139.17,0,0,0,.34-14.72c0-6.48.44-13-.4-19.46a6.79,6.79,0,0,1,.81-3.86c1.15-2.32,2-4.76,2.94-7.16a11.55,11.55,0,0,0-3.47-13.29c-.68-.57-1.58-1-1.68-2-1.24-3.47.19-6.91.19-10.37,0-4.12.72-8.24.83-12.37s.81-8.38-.4-12.56c-.72-2.49,1-2.94,3-2.85,4.16.14,8.08,1.55,12.12,2.28a2.7,2.7,0,0,1,1.82,1.19c1.67,2.15,4.29,1.88,6.53,2.43,1.36.32,1.86.63,2,2.13a123.93,123.93,0,0,1,0,18.78,78.89,78.89,0,0,0,.55,10.84c.07.76.19,1.1-.66,1.47-5.74,2.54-7.81,7.4-9.11,13.26C549.71,429.86,552.08,436.84,551.51,443.92Z" transform="translate(-133.75 -174.58)"/><path class="cls-11" d="M534.38,408.43c6.89,4.61,8.36,10.1,4.91,17.68a26.07,26.07,0,0,0-2.52,12.67,217,217,0,0,1-.9,38.31c-1.2,3.11-.36,6.39-.8,9.59-1.53,11.07-1.27,22.22-1.4,33.37a83.33,83.33,0,0,1-1.26,14.63c-1,5.36-1.15,10.93-2.43,16.26-1.92,8-4.07,15.82-9.74,22.38-7.85,9.08-17.6,12.53-29.19,11.33a111.76,111.76,0,0,1-56.36-22.42c-12.05-9.06-24.49-17.52-37.2-25.58-.85-.54-1.68-1.09-2.48-1.69s-1.57-1.3-.88-2.27,1.63-.42,2.42.1c4.1,2.7,8.14,5.5,12.31,8.07,12.49,7.7,23.38,17.65,35.81,25.4,16.14,10.06,33.63,16.12,52.88,15.46,8.56-.29,15.45-4.37,21-11.06,5.4-6.54,7-14.32,8.62-22.25,1.14-5.54,1.56-11.17,2.64-16.73,1.36-6.93,1.31-14.08,1.12-21.15a209.48,209.48,0,0,1,1.68-31.89c1.79-14,1.18-28,1.79-42,.1-2.27-.94-3.17-2.93-3.9a75,75,0,0,0-31.66-4.24c-2.55.2-5.06.9-7.6,1.34-.92.16-1.14.88-1.42,1.56-2.44,5.93-5,11.84-6.53,18.07a94.31,94.31,0,0,0-2.8,15.62c-.25,3.36-1.5,6.36-5,7.77-1.25.51-2.53.95-3.61-.43a2.1,2.1,0,0,0-1.06-.59c-11.77-3.54-20.15-11.73-28-20.58a97.87,97.87,0,0,1-10.39-14.66,22.94,22.94,0,0,1-3.51-10c0-5.78,3.09-9.93,7.1-13.62a1,1,0,0,0,1-.66c.7-1.58,1.35-1.33,2.21-.07,7,10.08,15.48,18.83,24.18,27.37a38.81,38.81,0,0,0,12.32,8.66,18,18,0,0,1,2.72,1.68c-1,1.07-1.86.22-2.68-.19a75.49,75.49,0,0,1-21.29-15.46,189.83,189.83,0,0,1-15.25-18.14c-1.06-1.45-1.66-1.15-2.62-.07a14.76,14.76,0,0,0-2,17.18,93,93,0,0,0,36.83,36.71c2.73,1.5,4.17,1,5.51-1.9a20.87,20.87,0,0,0,1.45-5.54c1.78-11.15,5.47-21.73,9.49-32.21.76-2,2.46-2.63,4.27-3a69.13,69.13,0,0,1,22.1-.31,82.79,82.79,0,0,1,16.28,3.54c1.23.42,2.1.31,2.57-1,1.11-3.12,2.91-6.18,3.19-9.38.52-5.87-2.16-9.74-9.26-11.14-3.36-.66-6.82-.11-10.22.09a34.63,34.63,0,0,1-12.11-1c-4.89-1.45-7.73,0-10.45,4.35-2.3,3.66-3,7.69-3.7,11.79-.12.74.1,2-.91,2s-1-1.31-1.2-2.18c-.1-.47-.24-.93-.36-1.39-.61-6.67,2.92-11.36,7.54-15.43a8.23,8.23,0,0,1,8.2-1.67c5,1.66,10,1.35,15,1S529.77,405.91,534.38,408.43Z" transform="translate(-133.75 -174.58)"/><path class="cls-9" d="M500.54,330.44a7.59,7.59,0,0,1,5.23-1.64c5.53-.12,11.05.05,16.57.2,6,.95,12.07.55,18.09,1,4.75.31,9.47,1,14.69,1.63-6.35,4.86-10.14,10.8-11.21,18.27s-.34,14.38,4.61,21.15c-3.39-.73-6.23-1.4-9.09-1.91-1.32-.23-2.7-1.06-4,0-.56-6.72.48-13.33,1.38-19.94a26.36,26.36,0,0,0,.48-3.93c0-.66,0-2.37-1.55-1-2.64-.32-4.16,1.22-5.12,3.34s-1.67,4.11-2.46,6.19c-.19.5-.13,1.19-.88,1.32-.57-2.62.32-5.08,1.14-7.44.91-2.65,1.57-5.43,3.16-7.82a1.45,1.45,0,0,0,.06-1.41c-1-1.5-2.11-.86-3.15-.16-2.37,1.61-3.88,4-5.5,6.27-.72,1-.92,2.52-2.47,2.82.09-2.75,1.81-4.87,2.78-7.28.48-1.21,2-2.43.44-3.9-1.64-1.24-3.16-.7-4.5.45s-3.07,2.28-4.05,4c-.25.45-.59,1.09-1.35.66.33-1.91,1.5-3.86-.28-5.67-1.33-.23-2.22.58-3,1.4a26.44,26.44,0,0,0-7.27,12.29c-.76,3.15-1.8,6.23-2.66,9.36-.69,2.51-1.13,2.44-3.52,1.53-2.75-1-3.68-3-4.11-5.66-1.29-8,.8-15.15,5.15-21.77C498.7,331.83,499.22,330.67,500.54,330.44Z" transform="translate(-133.75 -174.58)"/><path class="cls-12" d="M500.54,330.44a32.49,32.49,0,0,0-7.25,17.19,24,24,0,0,0,1,9.57c.67,2.22,3.11,2.25,4.75,3.2.62.36.66-.77.79-1.24,1-3.42,2-6.84,2.87-10.3,1.28-5.2,4.25-9.33,8.07-12.9.72-.67,1.64-2,2.78-.34A25.14,25.14,0,0,0,504,349.48a125.06,125.06,0,0,0-5.24,24,107.19,107.19,0,0,0-.09,14.45c.16,3.81.12,7.64.17,11.46,0,.43,0,.84-.54,1a3.13,3.13,0,0,1-.72-2.5c.27-7.49-1-14.94-.5-22.44A81.31,81.31,0,0,1,498.82,364c.33-1.59,0-2.31-1.63-3.16-3.69-2-7.67-3-11.57-4.32a3.78,3.78,0,0,0-3.12-.15.74.74,0,0,1-1.22-.38,3.44,3.44,0,0,0-.57-2.36c-4.58-5.37-3.35-11.27-1.64-17.24a14.16,14.16,0,0,1,4.64-6.94c1.42-1.21,1.6-2.31-.36-3.15-1.25-.48-2.57-.14-3.84-.3-.8-.11-1.88.18-2.05-1.13,1.93-.77,4-.56,6-.63,2.26-.09,3.63,1.24,4.09,3.46.41,1,1.34,1.09,2.24,1.18,3.17.33,6.3,1,9.5,1A1.41,1.41,0,0,1,500.54,330.44Z" transform="translate(-133.75 -174.58)"/><path class="cls-13" d="M474.51,315.19c2.63-.26,4.92.57,7.25,1.17.91.23,1.76.67,1.65,1.85s-1,1.48-2,1.53a10.31,10.31,0,0,1-2.48-.15,15.83,15.83,0,0,0-14.49,4.19c-1.14,1.09-2.34,2.12-3.54,3.15-.5.43-1.08.91-1.78.51s-.64-1.3-.53-2a5.79,5.79,0,0,1,1.54-3.09C464.05,318,468.61,315.06,474.51,315.19Z" transform="translate(-133.75 -174.58)"/><path class="cls-14" d="M445.21,349.49a1.83,1.83,0,0,1,.72.06c1,.36,2.85.22,2.45,1.75-.33,1.27-1.7.2-2.57,0a4.66,4.66,0,0,0-4.86,1c-1.31,1.33-.86,3-.47,4.48.71,2.82,2.56,5,4.36,7.17.67.81,1.15.75,1.67-.14A5.29,5.29,0,0,0,447,359c-.22-.61-.47-1.39.41-1.67s1.22.41,1.49,1a5,5,0,0,1-1.1,6c-1.16,1.16-.87,1.87.18,2.82,2,1.78,3.87,3.65,5.77,5.51.41.39.95,1,.58,1.5-.52.75-1.23.18-1.72-.2-5.87-4.51-11.12-9.54-13.41-16.86C437.69,352.45,440.06,349.43,445.21,349.49Z" transform="translate(-133.75 -174.58)"/><path class="cls-15" d="M481.47,355.86l1,.49c-6.82,3.64-13.54,1.43-15.31-6.44s-.64-15,4.43-21.37c1.52-1.91,3.29-3.42,5.84-3.69,1.25.9,2.66.23,4,.42.85.13,1.8-.23,2.51.55-1.13,1-2.53.66-3.81.66a8.09,8.09,0,0,0-6.73,3.15c-5.06,6.4-6.59,13.46-3.69,21.23,1.52,4,4.87,5.76,9.15,4.92C479.73,355.62,480.63,355.14,481.47,355.86Z" transform="translate(-133.75 -174.58)"/><path class="cls-16" d="M513.55,311.78c1.14,0,2.24.2,2.55,1.51s-.6,1.84-1.56,2.22A20.07,20.07,0,0,0,509,318.8c-.68.58-1.49,1.05-1.62,2.1-.17,1.34-1.16,1.55-2.23,1.33a2,2,0,0,1-1.61-2.19,3.58,3.58,0,0,1,.15-1C504.47,316.28,510.59,311.78,513.55,311.78Z" transform="translate(-133.75 -174.58)"/><path class="cls-17" d="M513.8,341.28a29.53,29.53,0,0,1,5-5.27,5.35,5.35,0,0,1,4.18-1c.75.06,1,.49.69,1.18-4.62-.06-7,2.86-8.59,6.63a37.44,37.44,0,0,1-2.48,5.43c-.26.4-.47,1-1.06.82s-.55-.95-.34-1.49C512.07,345.46,512.94,343.37,513.8,341.28Z" transform="translate(-133.75 -174.58)"/><path class="cls-18" d="M520.48,347.35c2-3,3.54-6.21,6.33-8.54a10.06,10.06,0,0,1,2.87-1.93c1.09-.39,2.47-.45,1.92,1.54-2.17-.67-3.41.85-4.67,2.09-2.44,2.42-3.69,5.63-5.37,8.55-.36.62-.3,2-1.41,1.62s-.2-1.43-.09-2.17A6.47,6.47,0,0,1,520.48,347.35Z" transform="translate(-133.75 -174.58)"/><path class="cls-19" d="M527.24,355.09a33.92,33.92,0,0,1,3.41-8.95c1.16-2.24,3.54-3,5.05-1.9a7.93,7.93,0,0,0-5.19,5.88,28,28,0,0,1-1.63,4.18C528.59,355,528.23,355.77,527.24,355.09Z" transform="translate(-133.75 -174.58)"/><path class="cls-9" d="M597.82,319.37a29.2,29.2,0,0,0-12.48,18.51c-1.74,7.74-1.06,15.18,3.66,22.38-4,0-7.56.06-11.15,0-1.38,0-.84-1-.66-1.83,1.65-7.8,1.49-15.34-3.3-22.2a17.83,17.83,0,0,0-8.73-6.37,4.31,4.31,0,0,0-2.7-.2c-6.05,1.65-12,.45-18.05-.34-1.71-.23-1.81-1-1.08-2.38a30,30,0,0,1,7-8.08,3.36,3.36,0,0,1,2.62-.49c5.8.27,11.63.94,17.42.74,6.56-.22,13.13-.05,19.7-.38,2.52-.13,5.05,0,7.58,0Z" transform="translate(-133.75 -174.58)"/><path class="cls-10" d="M591.12,344.81a28,28,0,0,1,5.38-16.24,12.48,12.48,0,0,1,4.34-3.69c3.85-2,7.58-1.14,10.08,2.46a16.89,16.89,0,0,1,2.62,12.35c-.73,5.49-2.39,10.56-6.31,14.61-5.75,5.93-12.25,4.45-15-3.34A20.66,20.66,0,0,1,591.12,344.81Z" transform="translate(-133.75 -174.58)"/><path class="cls-10" d="M550.32,354.59c0-6.19,1.66-11.77,6.24-16.24,4.86-4.74,11.29-3.9,14.55,2.12,3,5.53,2.76,11.33.75,17.13a16.46,16.46,0,0,1-6.51,8.86c-4.72,3.06-9.7,2-12.67-2.82A16.22,16.22,0,0,1,550.32,354.59Z" transform="translate(-133.75 -174.58)"/><path class="cls-20" d="M522.43,326.3a2,2,0,0,1-2.26,1.38c-2.3-.21-4.63-.31-6.95-.4-.91,0-1.06-.35-.86-1.24,1.52-6.81,9.71-11.44,16.36-9.15,1,.37,2.19.88,2.11,2.36A11.69,11.69,0,0,0,522.43,326.3Z" transform="translate(-133.75 -174.58)"/><path class="cls-21" d="M596.05,413c-.54.86-1.4.81-2.23.74-6.79-.56-13.63-.24-20.39-1.34a30.35,30.35,0,0,0-11.16.59c-3.2.68-5.24,3.31-6.4,6.17a29.9,29.9,0,0,0-2.36,13.65c.18,2.23,1,3.77,3.7,4.05a107.78,107.78,0,0,0,24.87-.71,30.49,30.49,0,0,1,9.9.57c.6.12,1.49.22,1.39,1.1s-.93.54-1.44.55c-11,.31-22,2.18-33.12,1-2.43-.25-5-.11-6.79-2.36a39,39,0,0,1,0-14.76,17.62,17.62,0,0,1,6-10.86,8.55,8.55,0,0,1,4.31-1.78c5-.87,9.91-.4,14.86.24a68.75,68.75,0,0,0,12.42.41C592.18,410.16,594.52,410.63,596.05,413Z" transform="translate(-133.75 -174.58)"/><path class="cls-22" d="M566,583.23c-6.77,3.08-13.11,1.92-19.15-2a11.3,11.3,0,0,1-2-2.17c.26-1.94,1.59-1.63,2.8-1.22s2.43,1.08,3.64,1.63c6.58,3,12.46,1.93,18.15-2.5,16.9-13.15,25.12-30.7,27.09-51.68,1.43-15.17.53-30.25-.76-45.36-.91-10.69-1.91-21.4-1.17-32.16a27.81,27.81,0,0,1,1-6.35c1,.45.65,1.23.67,1.8.24,10.15,0,20.34,1.13,30.44.83,7.43,1.11,14.89,2,22.3a161.44,161.44,0,0,1,.26,28.58c-1.06,12.12-3.92,23.77-10.16,34.4-.66,1.13-1.84,1.93-2.06,3.32-4.6,7.89-11,14.07-18.32,19.38A10.25,10.25,0,0,1,566,583.23Z" transform="translate(-133.75 -174.58)"/><path class="cls-23" d="M390,461.38a21.79,21.79,0,0,1,7.32,1.42c19.1,6.7,36.93,15.69,51.9,29.61,5.86,5.45,10.78,11.77,15.59,18.16a13.71,13.71,0,0,0,5.69,4.69,5.24,5.24,0,0,1,3.39,4.28c1.71,10.93,6.1,20.87,11.39,30.47.52,1,1.06,1.89,1.53,2.87.41.81.94,1.76,0,2.47s-1.69-.07-2.34-.73a19.4,19.4,0,0,1-3.41-5.2c-4.69-9.45-8.34-19.24-9.5-29.81a3.69,3.69,0,0,0-2.26-3.08c-3.37-1.5-5.5-4.21-7.53-7.09-9.6-13.7-22.09-24-36.65-32.15-9.47-5.3-19.55-8.84-29.73-12.24a16.31,16.31,0,0,0-6.19-.66c-1.13.07-2.65.39-2.69-1.31s1.52-1.64,2.77-1.7Z" transform="translate(-133.75 -174.58)"/><path class="cls-24" d="M543,578.19c-.06.3-.13.6-.19.9-.72,2.6,0,5.26-.36,7.88a7.66,7.66,0,0,1-2.16,5c.09-1.41.11-2.83.29-4.23,1.38-11.08-.68-21.89-2.37-32.74-.78-5-1.5-10-2.19-15.06-.18-1.32-.17-2.66-.22-4,0-.89.18-1.73,1.2-1.91s1.69.55,2,1.51a51.16,51.16,0,0,1,1.5,8.34A323.3,323.3,0,0,1,543,578.19Z" transform="translate(-133.75 -174.58)"/><path class="cls-25" d="M471,498.59c-.31-6.68,1.94-13.82,4.26-20.94a4.2,4.2,0,0,1,.66-1.32c.47-.59,1.09-1.15,1.91-.7s.41,1.14.25,1.77c-1,4.37-2.24,8.7-3.09,13.1a59.35,59.35,0,0,0-.66,16.14c.1,1.25.39,3.33-.9,3.47s-1.32-1.94-1.64-3.17A25.07,25.07,0,0,1,471,498.59Z" transform="translate(-133.75 -174.58)"/><path class="cls-26" d="M600.33,423.12c1.48,4.4,1.2,8.53-1.91,12.21-.47.34-.92.71-1.41,1s-1.07.57-1.6.06-.13-1.05.23-1.5c3.44-4.24,2.81-8.82,1.06-13.45-.76-2-1.67-3.91-2.27-6C597.43,417.19,598.86,420.18,600.33,423.12Z" transform="translate(-133.75 -174.58)"/><path class="cls-27" d="M486.47,528.84c-.12.26-.17.67-.38.8-.46.26-.79-.1-1-.49-2.18-4.92-6.39-8-10.34-11.23-1-.8-2.09-1.79-1-3.12.92-1.09,2.18-.64,3.12.15,4.11,3.44,8,7.07,9.2,12.62C486.22,528,486.34,528.36,486.47,528.84Z" transform="translate(-133.75 -174.58)"/><path class="cls-28" d="M566,583.23a72.62,72.62,0,0,0,19.84-19.07c.46-.66,1-1.24,1.58-1.86a42.9,42.9,0,0,1-9.74,13.31,94.21,94.21,0,0,1-9,6.73A3.12,3.12,0,0,1,566,583.23Z" transform="translate(-133.75 -174.58)"/><path class="cls-9" d="M481.47,355.86c-8.43,2.84-12.13-1.6-13.41-8.49-1.37-7.37.75-13.6,5.65-19,2.82-3.13,6.57-2.7,10.24-2.52,2.46,1.55,2.54,2,.38,4-5.76,5.22-6.81,11.81-5.56,19.06.34,2,1.76,3.35,2.94,4.84C482.4,354.58,482.62,355.25,481.47,355.86Z" transform="translate(-133.75 -174.58)"/><path class="cls-29" d="M609.05,340.49c-.16,1.35-.34,3.09-2.27,3.13s-2.43-1.54-2.49-3.14a2.5,2.5,0,0,1,2.52-2.82C608.52,337.56,609,338.82,609.05,340.49Z" transform="translate(-133.75 -174.58)"/><path class="cls-13" d="M568.14,352.27c-.19,1.6-.93,2.88-2.74,2.86s-2.5-1.17-2.38-2.84.85-2.94,2.7-2.94S568.06,350.62,568.14,352.27Z" transform="translate(-133.75 -174.58)"/></svg>