<svg viewBox="0 0 387 524" fill="none" xmlns="http://www.w3.org/2000/svg">
<g clip-path="url(#clip0_111_575)">
<path d="M212.149 464.22C209.232 464.376 206.208 464.589 203.028 464.888C200.914 465.088 189.012 470.291 173.112 469.751C163.905 469.429 154.94 469.116 150.074 463.873C146.537 460.105 145.845 454.735 146.974 448.471L147.087 447.837C148.085 447.052 149.069 446.221 150.056 445.314C158.211 438.84 159.947 434.284 155.444 424.741L155.94 423.999C157.038 421.653 158.167 419.278 159.22 416.93C165.76 403.308 169.672 402.427 173.067 392.917C173.819 390.751 174.359 388.517 174.68 386.246C181.184 402.602 188.639 419.214 197.045 436.082C201.073 445.969 206.136 455.401 212.149 464.22Z" fill="#1E1E1C"/>
<path d="M137.281 232.976C137.274 233.158 137.268 233.34 137.262 233.522C137.268 233.34 137.168 233.169 137.129 232.986C136.585 230.749 136.041 228.543 135.511 226.338L135.393 225.832C134.942 223.979 134.507 222.111 134.071 220.258L133.18 215.398L136.411 216.209C136.461 218.246 136.526 220.283 136.623 222.291C136.681 223.675 136.739 225.059 136.812 226.444L136.867 227.463C136.864 227.554 136.86 227.661 136.857 227.752C136.94 229.273 137.023 230.795 137.125 232.226C137.252 232.504 137.258 232.747 137.281 232.976Z" fill="#1E1E1C"/>
<path d="M138.425 216.689C141.34 217.429 144.314 218.247 147.3 219.126C146.285 219.986 145.348 220.743 144.552 221.399L143.46 222.287L142.087 223.393L141.744 223.67L140.856 224.353C140.856 224.353 140.856 224.353 140.853 224.429L140.439 223.7L139.583 222.152L138.425 216.689Z" fill="#1E1E1C"/>
<path d="M557.668 483.188C552.596 492.958 536.909 495.872 526.562 495.617C506.762 495.153 494.35 482.858 484.464 476.392C452.994 455.838 423.336 478.904 372.091 484.524C433.463 442.049 481.648 357.819 477.401 269.342C465.994 273.943 453.72 275.992 441.441 275.345L438.412 275.239C437.534 275.208 436.655 275.178 435.766 275.04L435.145 275.019C433.134 274.842 431.096 274.604 429.105 274.322C426.087 273.912 423.072 273.402 420.061 272.791C418.857 272.536 417.638 272.281 416.42 271.995L416.299 271.991C410.677 244.123 400.081 228.444 396.747 224.06C396.116 223.231 395.298 222.562 394.359 222.109C364.145 207.278 344.67 204.912 337.358 204.581C337.077 204.548 336.793 204.538 336.51 204.551C331.141 204.947 325.837 205.981 320.711 207.629C315.68 209.229 310.795 211.258 306.11 213.695L305.137 214.207L302.232 215.776L299.642 213.97L298.814 213.379L297.067 212.164C294.601 210.417 292.161 208.666 289.746 206.911L287.883 205.555L286.124 204.264C276.131 196.913 266.803 189.662 258.383 182.852L256.599 181.408C254.23 179.493 251.936 177.61 249.716 175.761L248.081 174.398L246.46 173.05L244.265 171.212C238.731 166.462 233.814 162.251 229.622 158.55L226.682 155.927C223.199 152.767 220.332 150.192 218.203 148.219L217.278 147.351L217.028 147.115L216.5 146.625L213.696 143.976C211.092 148.654 208.201 153.276 205.087 157.799C204.655 158.437 204.208 159.075 203.762 159.712L202.375 161.638L200.99 163.534C200.067 164.792 199.113 166.05 198.145 167.292L196.688 169.063C195.942 170.024 195.105 170.982 194.405 171.93L192.599 174.13L191.018 176.003C190.337 176.83 189.642 177.626 188.947 178.421C188.252 179.217 187.728 179.898 187.115 180.529L185.283 182.607C180.55 187.893 175.827 192.907 171.213 197.378L169.767 198.846L168.199 200.31C167.508 201 166.803 201.659 166.113 202.318L164.09 204.237L162.741 205.511L160.58 207.501L159.812 208.218L159.013 208.934C150.476 202.895 140.291 196.282 128.982 191.908L128.894 191.389L126.104 176.21C121.627 140.759 123.844 110.735 136.44 86.5116C151.065 58.486 176.488 44.2479 194.039 34.4428C258.756 -1.79538 344.985 3.67796 405.903 39.2791C437.178 57.5942 483.185 96.4255 483.563 131.597C483.59 133.876 483.578 150.703 485.843 173.092C488.025 194.84 490.306 201.587 493.007 207.149C500.564 222.6 507.385 220.91 514.354 234.928C524.682 255.685 518.689 277.482 517.352 282.356C513.547 296.211 508.665 297.528 507.154 308.213C505.243 321.693 512.628 325.11 520.653 347.548C526.111 362.744 533.696 383.891 530.673 407.918C529.966 413.391 528.912 417.516 530.113 423.951C532.462 436.548 541.789 439.076 550.461 453.397C555.317 461.54 562.642 473.611 557.668 483.188Z" fill="#1E1E1C"/>
<path d="M165.685 362.072C165.505 361.58 165.325 361.103 165.16 360.611" stroke="#1E1E1C" stroke-miterlimit="10"/>
<path d="M360.866 252.513L357.183 250.759C353.426 248.927 349.733 247.006 345.921 245.035L341.188 242.485L339.433 241.528L336.265 239.777L334.421 238.74C333.082 237.995 331.775 237.235 330.452 236.475L330.05 236.249C327.196 234.62 324.359 232.942 321.539 231.213L320.38 230.519L320.259 230.515L315.242 227.439C313.565 226.409 311.919 225.364 310.272 224.319C308.626 223.274 306.979 222.23 305.351 221.11C302.385 219.214 299.526 217.292 296.666 215.385C292.71 217.524 288.931 219.807 285.425 222.084L281.359 224.767C274.138 229.663 267.956 234.322 263.089 237.357L262.671 237.615C261.39 238.369 260.419 239.553 259.928 240.957C259.438 242.361 259.46 243.894 259.992 245.282C260.331 246.229 260.876 247.088 261.587 247.798C261.688 247.901 261.796 247.996 261.911 248.083C262.579 248.661 263.354 249.102 264.193 249.379C265.031 249.655 265.916 249.764 266.797 249.697C278.326 249.067 292.928 249.471 300.847 249.778C302.346 249.817 303.791 250.35 304.958 251.294C306.125 252.238 306.95 253.54 307.305 255C307.31 255.025 307.309 255.051 307.302 255.076C307.346 255.247 307.38 255.421 307.405 255.596L307.514 256.389C308.937 265.992 312.642 286.229 313.662 305.628C313.761 307.591 313.828 309.552 313.867 311.482C314.001 316.124 313.88 320.769 313.502 325.396C311.882 343.99 305.136 356.997 287.121 350.126C284.128 349.004 281.388 348.027 278.735 347.145C272.075 344.864 265.23 343.161 258.278 342.056L257.04 341.906C252.595 341.243 248.079 341.213 243.625 341.817" stroke="#1E1E1C" stroke-miterlimit="10"/>
<path d="M404.988 390.025C404.773 390.519 404.545 390.982 404.344 391.521C398.351 405.952 366.191 455.493 338.045 468.71C337.654 468.893 337.248 469.041 336.831 469.153C322.517 473.118 305.704 473.093 290.395 459.937C280.998 452.911 279.755 448.145 286.353 436.347C286.486 436.135 286.595 435.91 286.68 435.675C290.261 426.9 304.705 397.091 271.616 377.756L271.169 377.543C258.147 370.542 242.636 364.077 237.129 362.852C231.623 361.627 224.412 360.145 227.635 353.408C229.417 349.689 232.785 343.549 243.547 341.906C252.255 350.421 262.792 356.828 274.352 360.638C285.912 364.447 298.189 365.558 310.244 363.885C322.3 362.212 333.813 357.799 343.905 350.984C353.997 344.169 362.399 335.133 368.47 324.567C374.54 314 378.118 302.183 378.929 290.019C379.741 277.856 377.764 265.668 373.151 254.387C368.537 243.107 361.41 233.033 352.312 224.936C343.215 216.84 332.39 210.935 320.664 207.673C325.782 205.989 331.082 204.92 336.452 204.488C336.735 204.475 337.018 204.485 337.3 204.518C344.629 204.774 364.102 207.216 394.301 222.046C395.239 222.499 396.057 223.168 396.689 223.998C400.008 228.381 410.603 244.06 416.24 271.928L416.361 271.932C420.808 301.733 421.984 350.54 404.988 390.025Z" fill="white" stroke="#1E1E1C" stroke-miterlimit="10"/>
<path d="M372.151 484.527C370.597 485.596 369.045 486.62 367.494 487.614C349.234 499.505 317.53 519.508 279.523 512.469C247.06 506.46 225.226 483.524 212.149 464.219C206.151 455.395 201.104 445.958 197.092 436.068C188.725 419.221 181.27 402.609 174.726 386.232C171.453 378.068 168.44 370.015 165.685 362.072C166.187 361.588 166.703 361.136 167.25 360.684C170.846 357.749 174.835 355.333 179.099 353.504C191.872 346.357 207.179 339.602 212.591 338.318C218.003 337.034 225.077 335.489 221.842 328.694C221.531 328.045 221.177 327.319 220.734 326.559C219.613 324.575 218.131 322.819 216.367 321.38L216.204 321.252C215.88 320.983 215.51 320.727 215.155 320.487L215.006 320.39C213.423 319.359 211.699 318.562 209.889 318.025C202.388 315.727 190.154 316.12 169.686 323.5L167.228 324.416L163.465 325.803C161.246 326.72 158.922 327.358 156.546 327.703C155.314 327.884 154.068 327.943 152.825 327.877C149.636 327.754 146.564 326.638 144.037 324.684C124.754 309.871 132.237 248.442 134.017 235.686C134.221 234.175 134.355 233.375 134.355 233.375C134.355 233.375 136.057 233.267 138.912 233.139L139.003 233.142L144.09 232.925C155.613 232.462 174.442 232.087 184.007 233.864C185.633 234.095 187.213 234.581 188.687 235.303C190.103 233.409 190.876 229.077 176.96 220.329C172.629 217.596 167.252 213.52 160.992 209.14L159.867 208.357L160.635 207.639L162.797 205.65L164.145 204.375L166.168 202.457C166.858 201.797 167.564 201.138 168.255 200.449L169.822 198.985L171.268 197.517C175.838 192.999 180.606 188.032 185.339 182.745L187.17 180.668C187.785 179.975 188.404 179.192 189.002 178.56C189.601 177.928 190.392 176.968 191.073 176.142L192.655 174.268L194.46 172.068C195.236 171.124 196.043 170.165 196.743 169.202L198.188 167.339C199.156 166.097 200.11 164.839 201.033 163.581L202.419 161.685L203.805 159.759C204.252 159.122 204.699 158.484 205.13 157.846C208.242 153.399 211.135 148.701 213.74 144.023L216.543 146.673L217.072 147.162L217.321 147.398L218.246 148.266C220.376 150.239 223.24 152.86 226.725 155.974L229.666 158.597C233.857 162.298 238.774 166.509 244.309 171.259L246.504 173.097L248.124 174.445L249.76 175.808C251.97 177.647 254.264 179.529 256.643 181.455L258.427 182.899C266.846 189.709 276.129 196.959 286.167 204.311L287.926 205.602L289.789 206.958C292.194 208.713 294.634 210.464 297.11 212.211L298.857 213.426L299.685 214.017L302.276 215.824L305.181 214.254L306.154 213.742C310.838 211.305 315.723 209.276 320.754 207.676C332.48 210.938 343.306 216.843 352.403 224.94C361.5 233.036 368.628 243.11 373.241 254.39C377.855 265.671 379.831 277.859 379.02 290.022C378.209 302.186 374.631 314.003 368.56 324.57C362.49 335.136 354.087 344.173 343.996 350.987C333.904 357.802 322.39 362.215 310.335 363.888C298.28 365.561 286.003 364.451 274.442 360.641C262.882 356.832 252.345 350.424 243.637 341.909C232.876 343.553 229.508 349.692 227.725 353.411C224.458 360.147 231.684 361.614 237.22 362.855C242.756 364.097 258.177 370.543 271.26 377.546L271.707 377.759C304.749 397.138 290.352 426.903 286.77 435.678C286.686 435.913 286.576 436.138 286.443 436.35C279.845 448.148 281.09 452.869 290.486 459.94C305.792 473.156 322.604 473.212 336.922 469.156C337.339 469.044 337.745 468.896 338.135 468.713C366.283 455.451 398.442 405.956 404.435 391.525C404.634 391.03 404.862 390.567 405.078 390.028C422.074 350.543 420.899 301.736 416.466 271.966C417.684 272.252 418.903 272.507 420.107 272.762C423.118 273.363 426.133 273.873 429.151 274.293C431.203 274.577 433.241 274.815 435.191 274.99L435.812 275.011C436.705 275.043 437.58 275.164 438.458 275.21L441.487 275.316C453.767 275.963 466.04 273.914 477.447 269.313C481.647 357.819 433.462 442.049 372.151 484.527Z" fill="white" stroke="#1E1E1C" stroke-miterlimit="10"/>
<path d="M157.732 427.403C157.209 426.322 156.612 425.177 155.928 423.938" stroke="#1E1E1C" stroke-miterlimit="10"/>
<path d="M212.519 338.209C207.105 339.539 191.803 346.172 179.027 353.395C174.763 355.224 170.774 357.641 167.178 360.575C166.631 361.027 166.115 361.48 165.613 361.963C144.104 381.79 152.873 416.754 155.875 423.693L155.975 423.879L155.598 424.686C160.101 434.229 158.365 438.785 150.21 445.258C149.223 446.165 148.238 446.996 147.241 447.782L147.128 448.416C133.54 455.428 116.758 457.986 105.968 454.829C77.495 441.791 45.8079 387.544 39.1538 376.209C35.3719 364.284 32.2877 352.148 29.917 339.863C28.6221 333.53 27.7276 327.454 27.0095 321.537C22.853 288.192 26.1362 262.352 31.3233 243.64C33.1274 236.973 35.4385 230.453 38.2361 224.139C43.7468 211.787 48.9148 205.771 48.9148 205.771C80.8483 189.619 101.218 187.217 108.417 186.876C115.416 187.304 122.314 188.768 128.884 191.221L130.381 191.79C140.774 196.012 150.63 201.455 159.743 208.003L160.868 208.787C167.128 213.167 172.504 217.242 176.836 219.976C190.752 228.724 190.024 233.057 188.563 234.95C182.617 231.568 157.949 232.012 143.966 232.571L138.879 232.789L138.818 232.786C135.994 232.916 134.262 233.022 134.262 233.022C134.262 233.022 134.127 233.853 133.923 235.334C132.143 248.09 124.66 309.518 143.943 324.332C146.47 326.285 149.542 327.401 152.731 327.524C153.974 327.59 155.221 327.532 156.452 327.35C158.828 327.005 161.152 326.367 163.371 325.451C165.524 324.6 167.598 323.806 169.519 323.084C189.987 315.704 202.221 315.312 209.721 317.609C211.532 318.146 213.256 318.943 214.839 319.975L214.987 320.071C215.343 320.311 215.713 320.567 216.037 320.837L216.199 320.964C218.553 322.95 220.413 325.459 221.629 328.291C225.005 335.38 217.946 336.926 212.519 338.209Z" fill="white" stroke="#1E1E1C" stroke-miterlimit="10"/>
<path d="M155.947 442.892C153.17 445.024 150.201 446.893 147.08 448.475" stroke="#1E1E1C" stroke-miterlimit="10"/>
<path d="M252.482 297.066C252.402 299.357 249.052 304.98 244.739 310.814L243.562 312.397C241.702 314.869 239.72 317.336 237.793 319.562C234.045 323.987 230.604 327.42 228.99 328.063C225.484 329.459 220.136 324.579 215.187 320.852L215.025 320.725C214.686 320.455 214.331 320.2 213.975 319.96L213.827 319.863C212.927 319.228 211.997 318.638 211.038 318.095C210.315 317.758 209.536 317.556 208.74 317.499C199.408 316.398 172.76 323.182 167.884 325.624C164.467 328.8 161.105 331.735 157.844 334.385C118.82 366.433 90.8255 363.587 90.8255 363.587L90.8314 363.42L90.8617 354.309L91.3691 216.124L91.3994 207.012C105.846 208.408 120.176 210.827 134.281 214.251L137.527 215.063C138.174 215.208 138.835 215.383 139.481 215.557C142.426 216.318 145.43 217.137 148.492 218.013C162.144 221.872 175.317 227.264 187.76 234.086C189.856 235.268 191.905 236.525 193.876 237.824C209.598 248.245 223.927 257.736 232.518 249.668C233.42 247.27 234.514 245.47 240.186 244.56C243.771 244.078 247.387 243.859 251.004 243.905L252.763 243.891C259.054 243.913 264.828 245.725 265.776 250.694C266.725 255.663 252.482 297.066 252.482 297.066Z" fill="#CF7D7F"/>
<path d="M244.8 310.816C238.99 318.723 231.618 327.061 229.036 328.064C224.531 329.851 216.918 321.247 211.085 318.082C205.252 314.916 173.288 322.836 167.885 325.593C190.455 264.995 159.898 233.508 159.898 233.508C159.898 233.508 177.883 234.288 222.465 265.324C226.821 266.919 231.95 266.795 235.121 261.529C235.989 260.019 237.154 258.701 238.546 257.656C239.938 256.611 241.527 255.86 243.217 255.449L244.8 310.816Z" fill="#784A4B"/>
<path d="M83.3986 363.965C126.695 365.478 163.022 331.546 164.538 288.177C166.053 244.807 132.183 208.422 88.8864 206.909C45.5899 205.396 9.26271 239.328 7.74728 282.698C6.23185 326.068 40.1021 362.453 83.3986 363.965Z" fill="#B86F72"/>
<path d="M154.181 286.023C153.894 304.118 146.498 321.371 133.597 334.042C120.696 346.713 103.329 353.779 85.2622 353.71C67.1955 353.64 49.8853 346.439 37.0848 333.67C24.2843 320.9 17.0255 303.59 16.8822 285.493C16.9156 284.537 16.9484 283.597 16.9813 282.656C17.8273 264.714 25.6478 247.814 38.7706 235.571C51.8934 223.328 69.2768 216.713 87.2038 217.141C105.131 217.569 122.178 225.006 134.701 237.861C147.223 250.717 154.227 267.97 154.215 285.933L154.181 286.023Z" fill="#EBC4BA"/>
<path d="M154.181 286.023C154.155 295.055 152.351 303.994 148.872 312.328C145.394 320.662 140.309 328.227 133.909 334.591C127.508 340.955 119.919 345.992 111.573 349.415C103.228 352.838 94.2911 354.579 85.2739 354.539C77.4166 354.527 69.6211 353.15 62.2342 350.469C67.3222 349.045 72.2266 347.029 76.8474 344.464C88.3946 338.062 97.8553 328.462 104.097 316.813C110.338 305.165 113.096 291.962 112.04 278.784C110.984 265.607 106.159 253.015 98.1419 242.515C90.1252 232.014 79.2568 224.052 66.838 219.58C77.0713 216.678 87.8371 216.195 98.2876 218.17C108.738 220.145 118.588 224.524 127.061 230.961C135.535 237.398 142.4 245.717 147.117 255.265C151.834 264.812 154.273 275.326 154.243 285.979L154.181 286.023Z" fill="#F3DCD2"/>
<path d="M303.998 364.384C289.414 365.244 274.874 362.08 261.96 355.237C249.047 348.394 238.256 338.134 230.76 325.573C220.175 307.754 216.891 286.52 221.596 266.327C222.644 261.829 224.086 257.432 225.906 253.188C231.288 240.58 239.817 229.57 250.674 221.218C261.531 212.865 274.351 207.451 287.9 205.495C290.11 205.162 292.361 204.937 294.64 204.804C305.101 204.182 315.581 205.631 325.483 209.066C335.384 212.502 344.513 217.857 352.348 224.827C360.183 231.797 366.57 240.244 371.146 249.687C375.721 259.129 378.395 269.383 379.014 279.861C379.634 290.339 378.187 300.838 374.756 310.756C371.325 320.675 365.977 329.82 359.019 337.669C352.06 345.517 343.626 351.917 334.198 356.501C324.771 361.085 314.535 363.765 304.074 364.386L303.998 364.384Z" fill="#B86F72"/>
<path d="M303.442 355.146C292.684 355.804 281.92 353.967 271.987 349.779C286.617 344.79 299.209 335.13 307.831 322.282C316.452 309.434 320.627 294.108 319.714 278.655C319.618 276.631 319.385 274.634 319.105 272.665C317.57 262 313.619 251.829 307.554 242.93C301.49 234.032 293.473 226.641 284.117 221.325C281.707 219.946 279.219 218.708 276.666 217.617C286.098 214.429 296.095 213.268 306.004 214.208C315.914 215.148 325.514 218.169 334.18 223.074C343.539 228.388 351.56 235.777 357.627 244.677C363.694 253.576 367.647 263.748 369.183 274.415C369.463 276.384 369.681 278.381 369.792 280.405C370.337 289.676 369.053 298.965 366.013 307.739C362.973 316.514 358.237 324.603 352.075 331.544C345.913 338.485 338.447 344.142 330.102 348.191C321.758 352.241 312.698 354.604 303.442 355.146Z" fill="#F3DCD2"/>
<path d="M271.987 349.779C260.887 345.108 251.162 337.676 243.733 328.186C236.303 318.696 231.416 307.463 229.535 295.551C229.203 293.337 228.964 291.066 228.831 288.783C227.921 273.327 232.1 257.997 240.727 245.149C249.355 232.301 261.953 222.643 276.588 217.66C279.141 218.751 281.629 219.989 284.04 221.368C293.395 226.684 301.412 234.075 307.477 242.973C313.541 251.872 317.492 262.043 319.027 272.708C319.307 274.677 319.541 276.674 319.637 278.698C320.545 294.134 316.377 309.443 307.771 322.281C299.165 335.119 286.595 344.778 271.987 349.779Z" fill="#EBC4BA"/>
<path d="M95.9705 267.085C95.8794 269.597 94.9196 271.999 93.2552 273.881C91.5908 275.762 89.3254 277.005 86.8468 277.398C85.8213 279.965 84.2533 282.28 82.2505 284.184C80.2476 286.088 77.8574 287.535 75.2438 288.426C72.6301 289.317 69.855 289.631 67.1089 289.347C64.3628 289.063 61.7106 288.187 59.3345 286.779C57.5043 288.204 55.4104 289.252 53.1737 289.862C50.937 290.472 48.6018 290.632 46.3031 290.333C44.0044 290.033 41.7878 289.281 39.7812 288.119C37.7746 286.956 36.0178 285.407 34.6124 283.561C33.4925 284.66 32.1566 285.514 30.6896 286.068C29.2226 286.622 27.6566 286.865 26.0911 286.78C24.5256 286.695 22.9948 286.285 21.5961 285.576C20.1974 284.867 18.9612 283.874 17.9663 282.66L16.982 282.626C17.6366 267.653 23.1763 253.309 32.7516 241.792C33.4366 242.073 34.0945 242.416 34.7171 242.817C36.3593 240.237 38.6531 238.137 41.3662 236.73C44.0793 235.323 47.1153 234.659 50.1667 234.806C53.2181 234.953 56.1764 235.905 58.7422 237.565C61.3079 239.226 63.3899 241.536 64.7772 244.263C66.7819 243.004 69.0908 242.315 71.4564 242.271C73.822 242.226 76.1549 242.828 78.2048 244.011C80.2548 245.194 81.9445 246.914 83.0926 248.986C84.2407 251.058 84.8039 253.404 84.7217 255.773L85.5849 255.803C87.0071 255.859 88.4044 256.195 89.6966 256.792C90.9888 257.39 92.1506 258.237 93.1153 259.285C94.0801 260.333 94.8289 261.562 95.3189 262.9C95.8088 264.239 96.0302 265.661 95.9705 267.085Z" fill="white"/>
<path d="M151.576 304.612C149.097 313.326 144.928 321.466 139.308 328.566C133.688 335.666 126.727 341.587 118.821 345.992C118.034 346.061 117.244 346.084 116.454 346.061C113.847 345.983 111.29 345.322 108.971 344.127C106.652 342.932 104.629 341.232 103.05 339.153C101.93 340.252 100.594 341.106 99.127 341.66C97.66 342.214 96.094 342.457 94.5285 342.372C92.963 342.288 91.4323 341.878 90.0335 341.168C88.6348 340.459 87.3987 339.466 86.4037 338.253C82.7253 338.532 79.0781 337.404 76.1975 335.096C73.3169 332.788 71.4172 329.472 70.8814 325.816C70.3457 322.16 71.2137 318.436 73.3104 315.396C75.4072 312.355 78.5768 310.224 82.1801 309.432C82.306 307.043 83.0518 304.729 84.3436 302.717C85.6354 300.705 87.4288 299.066 89.5464 297.961C91.6641 296.855 94.0329 296.322 96.4189 296.414C98.8049 296.506 101.126 297.22 103.152 298.486C104.793 295.905 107.087 293.806 109.799 292.4C112.512 290.994 115.548 290.331 118.598 290.48C121.649 290.628 124.606 291.581 127.17 293.244C129.733 294.906 131.813 297.218 133.196 299.945C134.698 299.003 136.376 298.376 138.128 298.104C139.879 297.832 141.667 297.92 143.384 298.362C145.1 298.804 146.709 299.591 148.111 300.676C149.514 301.761 150.682 303.12 151.543 304.672L151.576 304.612Z" fill="white"/>
<path d="M318.748 315.86C318.645 318.627 317.587 321.273 315.753 323.344C313.919 325.416 311.423 326.785 308.693 327.218C307.548 330.036 305.813 332.576 303.604 334.664C301.396 336.753 298.765 338.342 295.89 339.324C293.016 340.307 289.964 340.659 286.941 340.358C283.919 340.057 280.997 339.11 278.372 337.579C274.297 340.714 269.146 342.1 264.052 341.432C258.958 340.764 254.337 338.097 251.205 334.018C250.81 334.397 250.393 334.753 249.955 335.083C239.102 324.447 231.97 310.582 229.625 295.554C230.534 293.621 231.843 291.903 233.464 290.514C235.086 289.126 236.983 288.098 239.031 287.499C241.079 286.9 243.23 286.743 245.343 287.04C247.455 287.336 249.481 288.079 251.285 289.219C253.09 286.373 255.615 284.057 258.603 282.504C261.59 280.952 264.935 280.219 268.296 280.38C271.658 280.54 274.917 281.589 277.743 283.419C280.57 285.249 282.862 287.796 284.388 290.8C286.599 289.409 289.147 288.648 291.758 288.598C294.369 288.548 296.943 289.213 299.205 290.519C301.467 291.826 303.331 293.725 304.595 296.014C305.86 298.302 306.478 300.892 306.383 303.506L307.337 303.539C310.477 303.669 313.439 305.037 315.576 307.345C317.714 309.653 318.854 312.714 318.748 315.86Z" fill="white"/>
<path d="M369.122 274.428C365.03 277.242 360.015 278.372 355.115 277.584C350.214 276.797 345.804 274.152 342.798 270.197C341.563 271.416 340.088 272.363 338.468 272.978C336.847 273.593 335.116 273.862 333.385 273.769C331.655 273.675 329.963 273.221 328.417 272.436C326.872 271.65 325.508 270.55 324.411 269.205C323.816 269.259 323.218 269.273 322.621 269.249C318.701 269.121 314.964 267.562 312.114 264.865C309.264 262.168 307.497 258.519 307.147 254.607C306.797 250.695 307.888 246.789 310.214 243.627C312.54 240.464 315.941 238.263 319.775 237.439C319.978 233.697 321.555 230.163 324.203 227.516C326.851 224.869 330.383 223.297 334.118 223.102C343.473 228.418 351.49 235.806 357.557 244.702C363.624 253.598 367.58 263.765 369.122 274.428Z" fill="white"/>
<path opacity="0.33" d="M83.1369 354.525C121.031 355.849 152.825 326.151 154.151 288.193C155.478 250.235 125.834 218.391 87.94 217.067C50.0462 215.743 18.2519 245.44 16.9256 283.398C15.5993 321.357 45.2431 353.201 83.1369 354.525Z" fill="#B86F72"/>
<path d="M28.256 282.397C27.8445 282.351 27.4468 282.222 27.0873 282.016C26.7278 281.811 26.4142 281.533 26.1658 281.202C25.9174 280.87 25.7395 280.491 25.6431 280.088C25.5467 279.684 25.5337 279.266 25.6051 278.857C26.9669 270.185 29.9538 261.849 34.4082 254.288C42.3029 241.193 54.1079 230.916 68.1532 224.911C68.5268 224.744 68.9303 224.655 69.3391 224.649C69.748 224.643 70.1539 224.72 70.5324 224.875C70.9109 225.03 71.2541 225.26 71.5413 225.552C71.8286 225.843 72.054 226.19 72.2039 226.571C72.4876 227.307 72.4737 228.125 72.1653 228.852C71.8569 229.578 71.2781 230.156 70.5518 230.462C57.6857 235.982 46.8797 245.418 39.6655 257.433C35.5952 264.36 32.8647 271.993 31.6169 279.933C31.4772 280.696 31.051 281.377 30.426 281.835C29.8009 282.293 29.0244 282.494 28.256 282.397Z" fill="white"/>
<path d="M26.7649 291.655C28.5379 291.717 30.0255 290.327 30.0876 288.551C30.1496 286.775 28.7626 285.285 26.9896 285.224C25.2166 285.162 23.729 286.551 23.6669 288.327C23.6049 290.103 24.9919 291.593 26.7649 291.655Z" fill="white"/>
<path opacity="0.33" d="M296.793 355.825C336.066 357.197 369.018 326.418 370.393 287.078C371.768 247.737 341.044 214.733 301.771 213.361C262.497 211.988 229.545 242.768 228.17 282.108C226.796 321.448 257.519 354.452 296.793 355.825Z" fill="#B86F72"/>
<path d="M242.422 277.761C242.042 277.718 241.676 277.598 241.344 277.409C241.013 277.22 240.723 276.965 240.492 276.66C240.262 276.355 240.096 276.007 240.004 275.635C239.912 275.264 239.897 274.878 239.958 274.501C241.219 266.511 243.977 258.831 248.087 251.868C255.349 239.799 266.22 230.327 279.159 224.796C279.507 224.645 279.883 224.566 280.263 224.563C280.643 224.561 281.019 224.635 281.369 224.782C281.72 224.929 282.037 225.146 282.301 225.419C282.566 225.692 282.773 226.015 282.91 226.37C283.172 227.046 283.164 227.797 282.886 228.467C282.609 229.137 282.083 229.673 281.419 229.963C269.551 235.027 259.58 243.714 252.928 254.786C249.172 261.166 246.652 268.199 245.502 275.515C245.369 276.211 244.977 276.83 244.405 277.247C243.833 277.664 243.124 277.848 242.422 277.761Z" fill="white"/>
<path d="M241.201 285.388C242.639 285.439 243.846 284.311 243.896 282.87C243.947 281.429 242.821 280.221 241.383 280.17C239.944 280.12 238.738 281.247 238.687 282.688C238.637 284.129 239.762 285.338 241.201 285.388Z" fill="white"/>
</g>
<defs>
<clipPath id="clip0_111_575">
<rect width="558.011" height="504.726" fill="white" transform="translate(17.625) rotate(2.00122)"/>
</clipPath>
</defs>
</svg>
