<svg width="207" height="187" viewBox="0 0 207 187" fill="none" xmlns="http://www.w3.org/2000/svg">
<path d="M60.6006 153.236C99.2363 146.769 128.915 128.898 131.976 127.006C135.036 125.113 134.758 123.848 133.863 122.545C132.969 121.242 131.806 121.099 129.819 121.727C127.833 122.355 89.215 135.993 87.2018 136.374C85.1886 136.754 83.3544 135.423 87.4255 134.148C91.4967 132.874 133.201 117.59 136.226 116.259C139.25 114.927 140.288 114.109 138.99 111.341C137.693 108.574 133.702 110.485 133.702 110.485C133.702 110.485 85.5823 126.511 84.106 124.752C83.3544 121.461 119.467 110.752 129.336 107.185C139.205 103.619 138.668 101.165 137.97 99.843C137.272 98.521 135.286 97.3892 130.311 99.0155C125.336 100.642 87.8281 112.331 85.8776 112.397C72.0893 112.159 119.252 97.4843 126.007 95.3729C132.763 93.2615 131.036 89.6665 128.799 88.3635C125.453 86.5565 72.8767 101.679 60.6186 105.968C48.3604 110.257 62.5154 93.8132 65.7813 88.0497C69.0472 82.2862 67.5708 75.3529 65.2355 74.611C62.9002 73.8692 58.4801 82.115 55.5363 86.4043C52.5926 90.6936 43.3676 98.3403 37.1312 104.332C33.4895 107.842 28.8815 113.748 25.6961 118.047C4.57985 90.104 -4.26037 62.7321 2.34295 41.0096C6.81674 26.306 20.2381 7.99784 40.1107 2.43406C62.3723 -3.78596 88.025 7.31305 106.01 30.776C129.47 5.23971 158.8 -4.13787 179.317 6.37149C198.724 16.3007 204.183 40.7908 205.024 44.9375C213.891 88.6869 171.864 143.849 103.021 186.647" fill="#A90004"/>
</svg>
