<svg width="164" height="10" viewBox="0 0 164 10" fill="none" xmlns="http://www.w3.org/2000/svg">
<path d="M1.8844 1.55616V4.45196H5.66717V5.90663H1.8844V9.89175H0V0.108254H6.3651V1.55616H1.8844Z" fill="#1E1E1C"/>
<path d="M11.9681 8.42355C12.3311 8.42355 12.6544 8.36491 12.9383 8.24763C13.2267 8.13036 13.4687 7.96572 13.6641 7.75372C13.8595 7.54172 14.0084 7.28462 14.1108 6.98241C14.2178 6.6802 14.2713 6.3419 14.2713 5.96752V0.108254H16.1487V5.96752C16.1487 6.54939 16.051 7.08841 15.8556 7.58457C15.6648 8.07623 15.388 8.50248 15.0251 8.86333C14.6668 9.21967 14.2294 9.49932 13.713 9.7023C13.1965 9.90077 12.6149 10 11.9681 10C11.3167 10 10.7328 9.90077 10.2164 9.7023C9.69988 9.49932 9.26019 9.21967 8.89727 8.86333C8.539 8.50248 8.26215 8.07623 8.06673 7.58457C7.87597 7.08841 7.78058 6.54939 7.78058 5.96752V0.108254H9.65801V5.96076C9.65801 6.33514 9.70919 6.67343 9.81155 6.97564C9.91857 7.27785 10.0698 7.53721 10.2652 7.75372C10.4653 7.96572 10.7072 8.13036 10.991 8.24763C11.2795 8.36491 11.6052 8.42355 11.9681 8.42355Z" fill="#1E1E1C"/>
<path d="M25.3151 1.60352H22.2722V9.89175H20.3948V1.60352H17.3518V0.108254H25.3151V1.60352Z" fill="#1E1E1C"/>
<path d="M30.6977 8.42355C31.0606 8.42355 31.384 8.36491 31.6678 8.24763C31.9563 8.13036 32.1982 7.96572 32.3937 7.75372C32.5891 7.54172 32.738 7.28462 32.8403 6.98241C32.9473 6.6802 33.0008 6.3419 33.0008 5.96752V0.108254H34.8783V5.96752C34.8783 6.54939 34.7806 7.08841 34.5851 7.58457C34.3944 8.07623 34.1175 8.50248 33.7546 8.86333C33.3963 9.21967 32.959 9.49932 32.4425 9.7023C31.926 9.90077 31.3444 10 30.6977 10C30.0463 10 29.4624 9.90077 28.9459 9.7023C28.4294 9.49932 27.9897 9.21967 27.6268 8.86333C27.2685 8.50248 26.9917 8.07623 26.7963 7.58457C26.6055 7.08841 26.5101 6.54939 26.5101 5.96752V0.108254H28.3875V5.96076C28.3875 6.33514 28.4387 6.67343 28.5411 6.97564C28.6481 7.27785 28.7993 7.53721 28.9947 7.75372C29.1948 7.96572 29.4368 8.13036 29.7206 8.24763C30.0091 8.36491 30.3348 8.42355 30.6977 8.42355Z" fill="#1E1E1C"/>
<path d="M40.0456 4.76319C40.3992 4.76319 40.7063 4.72034 40.9668 4.63464C41.232 4.54894 41.4484 4.43166 41.6159 4.28281C41.788 4.12945 41.916 3.94903 41.9998 3.74154C42.0835 3.53405 42.1254 3.30627 42.1254 3.05819C42.1254 2.56202 41.9556 2.18088 41.6159 1.91475C41.2809 1.64862 40.7667 1.51556 40.0735 1.51556H38.873V4.76319H40.0456ZM44.8752 9.89175H43.1793C42.8582 9.89175 42.6256 9.76996 42.4813 9.52639L40.3596 6.39378C40.2805 6.2765 40.1921 6.19305 40.0944 6.14344C40.0014 6.09382 39.8618 6.06901 39.6757 6.06901H38.873V9.89175H36.9956V0.108254H40.0735C40.7574 0.108254 41.3437 0.178168 41.8323 0.317997C42.3255 0.453315 42.7279 0.645015 43.0397 0.893099C43.3561 1.14118 43.5887 1.43888 43.7376 1.7862C43.8865 2.129 43.9609 2.50789 43.9609 2.92287C43.9609 3.25214 43.9097 3.56337 43.8074 3.85656C43.7097 4.14975 43.5654 4.41588 43.3747 4.65494C43.1886 4.894 42.9559 5.10374 42.6767 5.28417C42.4022 5.46459 42.0882 5.60668 41.7345 5.71042C41.8555 5.77808 41.9672 5.85927 42.0695 5.95399C42.1719 6.0442 42.265 6.15246 42.3487 6.27875L44.8752 9.89175Z" fill="#1E1E1C"/>
<path d="M47.8495 1.55616V4.26928H51.381V5.66982H47.8495V8.43708H52.3302V9.89175H45.9651V0.108254H52.3302V1.55616H47.8495Z" fill="#1E1E1C"/>
<path d="M61.1634 6.10284V9.89175H59.293V6.10284L55.6149 0.108254H57.269C57.4318 0.108254 57.5598 0.146594 57.6529 0.223275C57.7506 0.299955 57.832 0.396933 57.8971 0.514208L59.7397 3.78214C59.8467 3.97609 59.9397 4.15877 60.0188 4.33018C60.1026 4.50158 60.177 4.67298 60.2422 4.84438C60.3027 4.67298 60.3724 4.50158 60.4515 4.33018C60.5306 4.15877 60.6214 3.97609 60.7237 3.78214L62.5593 0.514208C62.6105 0.414975 62.6872 0.322507 62.7896 0.236806C62.892 0.151105 63.0222 0.108254 63.1804 0.108254H64.8415L61.1634 6.10284Z" fill="#1E1E1C"/>
<path d="M74.9188 5C74.9188 5.71719 74.7955 6.3825 74.5489 6.99594C74.307 7.60487 73.9627 8.13261 73.516 8.57916C73.0693 9.02571 72.5319 9.37528 71.9038 9.62788C71.2756 9.87596 70.5777 10 69.81 10C69.0469 10 68.3513 9.87596 67.7232 9.62788C67.095 9.37528 66.5553 9.02571 66.104 8.57916C65.6573 8.13261 65.3107 7.60487 65.0641 6.99594C64.8175 6.3825 64.6942 5.71719 64.6942 5C64.6942 4.28281 64.8175 3.61976 65.0641 3.01083C65.3107 2.39738 65.6573 1.86739 66.104 1.42084C66.5553 0.974289 67.095 0.626973 67.7232 0.37889C68.3513 0.126297 69.0469 0 69.81 0C70.3218 0 70.8034 0.0586376 71.2547 0.175913C71.706 0.288678 72.1201 0.45106 72.497 0.663058C72.8739 0.870545 73.2112 1.12539 73.509 1.4276C73.8114 1.7253 74.0673 2.05909 74.2767 2.42896C74.4861 2.79883 74.6443 3.20027 74.7513 3.63329C74.863 4.06631 74.9188 4.52188 74.9188 5ZM72.9995 5C72.9995 4.46324 72.9251 3.98286 72.7762 3.55886C72.6273 3.13036 72.4156 2.76725 72.1411 2.46955C71.8665 2.17185 71.5315 1.94407 71.136 1.7862C70.7452 1.62833 70.3032 1.54939 69.81 1.54939C69.3168 1.54939 68.8724 1.62833 68.4769 1.7862C68.0861 1.94407 67.7511 2.17185 67.4719 2.46955C67.1974 2.76725 66.9857 3.13036 66.8368 3.55886C66.6879 3.98286 66.6135 4.46324 66.6135 5C66.6135 5.53676 66.6879 6.0194 66.8368 6.4479C66.9857 6.8719 67.1974 7.23275 67.4719 7.53045C67.7511 7.82364 68.0861 8.04917 68.4769 8.20704C68.8724 8.36491 69.3168 8.44384 69.81 8.44384C70.3032 8.44384 70.7452 8.36491 71.136 8.20704C71.5315 8.04917 71.8665 7.82364 72.1411 7.53045C72.4156 7.23275 72.6273 6.8719 72.7762 6.4479C72.9251 6.0194 72.9995 5.53676 72.9995 5Z" fill="#1E1E1C"/>
<path d="M80.6295 8.42355C80.9924 8.42355 81.3158 8.36491 81.5996 8.24763C81.8881 8.13036 82.13 7.96572 82.3255 7.75372C82.5209 7.54172 82.6698 7.28462 82.7721 6.98241C82.8792 6.6802 82.9327 6.3419 82.9327 5.96752V0.108254H84.8101V5.96752C84.8101 6.54939 84.7124 7.08841 84.517 7.58457C84.3262 8.07623 84.0493 8.50248 83.6864 8.86333C83.3282 9.21967 82.8908 9.49932 82.3743 9.7023C81.8578 9.90077 81.2762 10 80.6295 10C79.9781 10 79.3942 9.90077 78.8777 9.7023C78.3612 9.49932 77.9215 9.21967 77.5586 8.86333C77.2003 8.50248 76.9235 8.07623 76.7281 7.58457C76.5373 7.08841 76.4419 6.54939 76.4419 5.96752V0.108254H78.3194V5.96076C78.3194 6.33514 78.3705 6.67343 78.4729 6.97564C78.5799 7.27785 78.7311 7.53721 78.9266 7.75372C79.1266 7.96572 79.3686 8.13036 79.6524 8.24763C79.9409 8.36491 80.2666 8.42355 80.6295 8.42355Z" fill="#1E1E1C"/>
<path d="M93.9765 1.60352H90.9335V9.89175H89.0561V1.60352H86.0131V0.108254H93.9765V1.60352Z" fill="#1E1E1C"/>
<path d="M103.805 0.108254V9.89175H101.92V5.6157H97.1815V9.89175H95.2971V0.108254H97.1815V4.31664H101.92V0.108254H103.805Z" fill="#1E1E1C"/>
<path d="M120.39 0.108254V9.89175H118.736V3.5724C118.736 3.3198 118.75 3.04691 118.778 2.75372L115.728 8.30853C115.584 8.57465 115.363 8.70771 115.065 8.70771H114.8C114.502 8.70771 114.281 8.57465 114.137 8.30853L111.052 2.73342C111.066 2.88227 111.077 3.02887 111.087 3.17321C111.096 3.31755 111.101 3.45061 111.101 3.5724V9.89175H109.446V0.108254H110.863C110.947 0.108254 111.019 0.110509 111.08 0.11502C111.14 0.11953 111.194 0.130807 111.24 0.148849C111.291 0.166892 111.336 0.196211 111.373 0.236806C111.415 0.277401 111.454 0.331528 111.491 0.399187L114.513 5.83221C114.593 5.97654 114.665 6.12539 114.73 6.27875C114.8 6.43212 114.867 6.58999 114.932 6.75237C114.997 6.58548 115.065 6.42535 115.135 6.27199C115.204 6.11412 115.279 5.96301 115.358 5.81867L118.338 0.399187C118.375 0.331528 118.415 0.277401 118.457 0.236806C118.499 0.196211 118.543 0.166892 118.589 0.148849C118.641 0.130807 118.696 0.11953 118.757 0.11502C118.817 0.110509 118.889 0.108254 118.973 0.108254H120.39Z" fill="#1E1E1C"/>
<path d="M127.974 6.19756L126.745 2.94317C126.685 2.79883 126.622 2.62742 126.557 2.42896C126.492 2.23049 126.427 2.01624 126.362 1.7862C126.301 2.01624 126.238 2.23275 126.173 2.43572C126.108 2.63419 126.045 2.80785 125.985 2.9567L124.763 6.19756H127.974ZM131.289 9.89175H129.837C129.674 9.89175 129.542 9.85341 129.439 9.77673C129.337 9.69554 129.26 9.5963 129.209 9.47903L128.455 7.48309H124.275L123.521 9.47903C123.484 9.58277 123.412 9.67749 123.305 9.76319C123.198 9.8489 123.065 9.89175 122.907 9.89175H121.441L125.412 0.108254H127.325L131.289 9.89175Z" fill="#1E1E1C"/>
<path d="M138.401 1.60352H135.358V9.89175H133.481V1.60352H130.438V0.108254H138.401V1.60352Z" fill="#1E1E1C"/>
<path d="M146.771 1.60352H143.728V9.89175H141.85V1.60352H138.808V0.108254H146.771V1.60352Z" fill="#1E1E1C"/>
<path d="M149.976 1.55616V4.26928H153.507V5.66982H149.976V8.43708H154.457V9.89175H148.091V0.108254H154.457V1.55616H149.976Z" fill="#1E1E1C"/>
<path d="M159.17 4.76319C159.524 4.76319 159.831 4.72034 160.092 4.63464C160.357 4.54894 160.573 4.43166 160.741 4.28281C160.913 4.12945 161.041 3.94903 161.125 3.74154C161.208 3.53405 161.25 3.30627 161.25 3.05819C161.25 2.56202 161.08 2.18088 160.741 1.91475C160.406 1.64862 159.892 1.51556 159.198 1.51556H157.998V4.76319H159.17ZM164 9.89175H162.304C161.983 9.89175 161.75 9.76996 161.606 9.52639L159.484 6.39378C159.405 6.2765 159.317 6.19305 159.219 6.14344C159.126 6.09382 158.987 6.06901 158.8 6.06901H157.998V9.89175H156.12V0.108254H159.198C159.882 0.108254 160.468 0.178168 160.957 0.317997C161.45 0.453315 161.853 0.645015 162.164 0.893099C162.481 1.14118 162.713 1.43888 162.862 1.7862C163.011 2.129 163.086 2.50789 163.086 2.92287C163.086 3.25214 163.035 3.56337 162.932 3.85656C162.834 4.14975 162.69 4.41588 162.499 4.65494C162.313 4.894 162.081 5.10374 161.802 5.28417C161.527 5.46459 161.213 5.60668 160.859 5.71042C160.98 5.77808 161.092 5.85927 161.194 5.95399C161.297 6.0442 161.39 6.15246 161.473 6.27875L164 9.89175Z" fill="#1E1E1C"/>
</svg>
